<svg id="Capa_1" enable-background="new 0 0 512 512" height="512" viewBox="0 0 512 512" width="512" xmlns="http://www.w3.org/2000/svg"><g><path d="m256 434.6h-216c-22.091 0-40-17.909-40-40v-4.979c0-22.091 17.909-40 40-40h216z" fill="#b56d3c"/><path d="m256 437.415-143.57 55.146c-20.622 7.921-43.762-2.375-51.683-22.998l-1.785-4.648c-7.921-20.622 2.375-43.762 22.998-51.683l143.57-55.146z" fill="#c9885b"/><path d="m472 434.6h-216v-84.979h216c22.091 0 40 17.909 40 40v4.979c0 22.092-17.909 40-40 40z" fill="#8f562f"/><path d="m256 437.415 143.57 55.146c20.622 7.921 43.762-2.375 51.683-22.998l1.785-4.648c7.921-20.622-2.375-43.762-22.997-51.683l-143.57-55.146z" fill="#b56d3c"/><path d="m424.005 215.323-23.594-84.105-43.874 45.813-100.537-160.263-100.537 160.262-43.874-45.813-23.594 84.105c-30.763 109.659 49.809 220.014 163.683 222.054 1.436.026 2.877.039 4.321.039s2.885-.013 4.321-.039c113.875-2.039 194.447-112.394 163.685-222.053z" fill="#ffb655"/><path d="m256 437.415c1.444 0 2.885-.013 4.321-.039 113.874-2.04 194.446-112.395 163.683-222.054l-23.594-84.105-43.874 45.813-100.536-160.262z" fill="#ff7c48"/><path d="m342.972 322.443-12.214-43.539-22.712 23.716-52.046-82.964-52.046 82.964-22.712-23.716-12.214 43.539c-15.925 56.768 25.785 113.896 84.735 114.952.744.013 1.489.02 2.237.02s1.493-.007 2.237-.02c58.95-1.056 100.66-58.184 84.735-114.952z" fill="#ffe477"/><path d="m256 437.415c.748 0 1.493-.007 2.237-.02 58.95-1.056 100.66-58.184 84.735-114.952l-12.214-43.539-22.712 23.716-52.046-82.964z" fill="#ffb655"/></g></svg>