<svg height="512pt" viewBox="-1 0 512 512" width="512pt" xmlns="http://www.w3.org/2000/svg"><path d="m405.554688 41.230469c-10.207032-22.269531-24.566407-36.394531-25.171876-36.984375l-4.359374-4.246094h-40.871094l-.125 14.84375c-.515625 60.847656-44.398438 76.234375-58.816406 81.289062l4.953124 14.128907 4.953126 14.125c6.558593-2.296875 14.789062-5.527344 23.484374-10.382813l82.25 10.820313 13.429688 6.617187c14.109375-28.632812 14.203125-59.828125.273438-90.210937zm0 0" fill="#f4a76c"/><path d="m175.964844 14.84375-.125-14.84375h-40.871094l-4.363281 4.246094c-.605469.589844-14.960938 14.714844-25.167969 36.984375-13.929688 30.382812-13.835938 61.578125.269531 90.210937l13.429688-6.617187 82.253906-10.820313c8.691406 4.855469 16.921875 8.085938 23.480469 10.382813l4.953125-14.125 4.953125-14.128907c-14.417969-5.054687-58.296875-20.441406-58.8125-81.289062zm0 0" fill="#ffbb84"/><path d="m510.992188 128.707031v37.964844c0 41.277344-33.585938 74.851563-74.851563 74.851563h-7.84375l-40.511719 144.214843-14.414062-4.050781h-235.753906l-14.410157 4.050781-40.511719-144.214843h-7.84375c-41.269531 0-74.851562-33.574219-74.851562-74.851563v-37.964844h103.535156c19.832032-21.359375 47.308594-33.414062 76.910156-33.414062h150.101563c29.601563 0 57.078125 12.054687 76.910156 33.414062zm0 0" fill="#ff8501"/><path d="m510.992188 128.707031v37.964844c0 41.277344-33.585938 74.851563-74.851563 74.851563h-7.84375l-40.511719 144.214843-14.414062-4.050781h-117.726563v-286.394531h74.902344c29.601563 0 57.078125 12.054687 76.910156 33.414062zm0 0" fill="#ba6100"/><path d="m379.859375 483.246094c-18.09375 18.542968-42.316406 28.753906-68.214844 28.753906-10.867187 0-21.539062-1.816406-31.695312-5.410156-7.835938-2.761719-16.070313-4.152344-24.304688-4.171875-8.332031-.007813-16.664062 1.378906-24.597656 4.171875-10.160156 3.59375-20.832031 5.410156-31.699219 5.410156-25.898437 0-50.121094-10.210938-68.214844-28.753906-18.09375-18.53125-27.703124-43.015625-27.066406-68.941406.597656-24.464844 10.527344-47.539063 27.972656-64.972657 17.449219-17.4375 40.53125-27.355469 64.992188-27.9375 11.417969-.277343 22.625 1.457031 33.324219 5.140625 8.277343 2.84375 16.777343 4.261719 25.292969 4.242188 8.410156-.019532 16.816406-1.425782 24.988281-4.242188 9.980469-3.433594 20.402343-5.167968 31.011719-5.167968.777343 0 1.546874.007812 2.3125.027343 24.464843.582031 47.546874 10.5 64.992187 27.9375 17.445313 17.433594 27.375 40.507813 27.976563 64.972657.636718 25.925781-8.976563 50.410156-27.070313 68.941406zm0 0" fill="#ffbb84"/><path d="m379.859375 483.246094c-18.09375 18.542968-42.316406 28.753906-68.214844 28.753906-10.867187 0-21.539062-1.816406-31.695312-5.410156-7.835938-2.761719-16.070313-4.152344-24.304688-4.171875v-171.640625c8.414063-.019532 16.820313-1.425782 24.992188-4.242188 9.980469-3.433594 20.398437-5.171875 31.007812-5.171875.78125 0 1.546875.011719 2.316407.03125 24.460937.578125 47.546874 10.5 64.992187 27.933594 17.445313 17.4375 27.375 40.511719 27.976563 64.972656.636718 25.929688-8.976563 50.414063-27.070313 68.945313zm0 0" fill="#f4a76c"/><path d="m291.363281 227.550781h29.398438v29.941407h-29.398438zm0 0" fill="#703700"/><path d="m190.230469 227.550781h29.398437v29.941407h-29.398437zm0 0" fill="#994c00"/><path d="m288.777344 442.128906h29.941406v48.902344h-29.941406zm0 0" fill="#703700"/><path d="m192.273438 442.128906h29.941406v48.902344h-29.941406zm0 0" fill="#994c00"/></svg>