<?xml version="1.0" encoding="iso-8859-1"?>
<!-- Generator: Adobe Illustrator 19.0.0, SVG Export Plug-In . SVG Version: 6.00 Build 0)  -->
<svg version="1.1" id="Capa_1" xmlns="http://www.w3.org/2000/svg" xmlns:xlink="http://www.w3.org/1999/xlink" x="0px" y="0px"
	 viewBox="0 0 512 512" style="enable-background:new 0 0 512 512;" xml:space="preserve">
<path style="fill:#9AE7FD;" d="M91.934,452.501C35.751,405.542,0,334.951,0,256C0,116.199,112.062,2.571,251.259,0.043
	C393.446-2.539,511.987,113.766,512,255.977c0.007,79.197-35.96,149.984-92.44,196.947c-1.627,1.353-3.687,2.077-5.803,2.077H98.903
	C96.36,455,93.885,454.132,91.934,452.501z"/>
<path style="fill:#A39C12;" d="M470,245c0,30.375-24.624,55-55,55s-55-24.625-55-55c0-0.345,0.02-0.685,0.026-1.028
	C352.517,247.817,344.016,250,335,250c-29.406,0-53.42-23.078-54.924-52.109C275.283,199.254,270.23,200,265,200
	c-30.376,0-55-24.625-55-55s24.624-55,55-55c8.481,0,16.512,1.923,23.686,5.352C298.464,80.109,315.546,70,335,70
	c24.281,0,44.872,15.741,52.164,37.57C395.331,102.766,404.84,100,415,100c30.376,0,55,24.625,55,55
	c0,18.609-9.251,35.047-23.396,45C460.749,209.953,470,226.391,470,245z"/>
<path style="fill:#F8BB5E;" d="M274.898,330.975L274.898,330.975c-27.484,12.936-60.25,1.142-73.185-26.342L95.249,78.435
	c-12.935-27.484-1.142-60.25,26.342-73.185l0,0c27.484-12.935,60.25-1.142,73.185,26.342L301.239,257.79
	C314.175,285.273,302.381,318.039,274.898,330.975z"/>
<path style="fill:#EBAE56;" d="M287.58,322.698c-3.741,3.253-7.975,6.061-12.683,8.277c-27.484,12.936-60.25,1.142-73.185-26.342
	L95.249,78.435c-12.936-27.483-1.142-60.25,26.342-73.185c4.707-2.216,9.57-3.689,14.461-4.499
	c-17.619,15.318-24.029,40.727-14.476,63.073c4.959-4.374,12.464-9.173,21.308-13.335c17.49-8.232,33.574-10.854,35.926-5.857
	s-9.92,15.721-27.409,23.953c-8.863,4.171-17.362,6.899-23.899,7.928l15.334,32.58c4.959-4.382,12.477-9.193,21.341-13.365
	c17.49-8.231,33.574-10.854,35.926-5.856s-9.92,15.721-27.409,23.953c-8.863,4.171-17.362,6.899-23.899,7.928l15.334,32.581
	c4.959-4.382,12.477-9.193,21.341-13.365c17.49-8.231,33.574-10.854,35.926-5.857s-9.92,15.721-27.409,23.953
	c-8.863,4.171-17.362,6.899-23.899,7.928l58.769,124.865C239.576,314.634,263.915,326.618,287.58,322.698z"/>
<path style="fill:#D0C731;" d="M452.538,226.405l-76.791,173.791c-11.161,25.258-40.684,36.687-65.942,25.526l0,0
	c-25.258-11.161-36.687-40.684-25.526-65.942l16.208-36.682l-61.41-158.642c-9.969-25.752,2.827-54.709,28.579-64.678l0,0
	c25.752-9.968,54.71,2.827,64.678,28.579l25.31,65.384l3.425-7.752c11.161-25.258,40.684-36.687,65.942-25.526l0,0
	C452.27,171.624,463.699,201.147,452.538,226.405z"/>
<path style="fill:#BFB617;" d="M287.811,124.145c-1.994-5.15,0.565-10.942,5.716-12.936c5.15-1.994,10.942,0.565,12.936,5.716
	s-0.565,10.942-5.716,12.936C295.597,131.854,289.805,129.295,287.811,124.145z M331.131,236.053
	c5.15-1.994,7.709-7.785,5.716-12.936s-7.785-7.709-12.936-5.716c-5.15,1.994-7.709,7.785-5.716,12.936
	S325.98,238.047,331.131,236.053z M302.251,161.447c-5.15,1.994-7.709,7.785-5.716,12.936c1.994,5.151,7.785,7.71,12.936,5.716
	c5.15-1.994,7.709-7.785,5.716-12.936S307.402,159.454,302.251,161.447z M397.657,202.155c2.096-4.745,0.207-10.24-4.216-12.74
	c10.549-14.923,28.451-22.803,46.364-20.793c-3.73-3.275-8.013-6.047-12.794-8.159c-25.258-11.161-54.782,0.268-65.943,25.526
	l-43.435,98.301l-46.97-121.338c5.15-1.994,7.709-7.785,5.716-12.936c-1.872-4.837-7.095-7.387-11.99-6.028
	c-3.092-18.012,3.994-36.242,18.082-47.488c-4.953,0.322-9.942,1.39-14.816,3.277c-25.752,9.969-38.547,38.926-28.579,64.678
	l61.41,158.642l-16.208,36.682c-11.161,25.258,0.268,54.782,25.526,65.942c4.781,2.112,9.714,3.413,14.647,3.966
	c-15.979-14.026-21.781-37.306-12.732-57.783l6.192-14.013c13.536,14.349,34.903,19.891,54.434,12.331
	c4.874-1.887,9.282-4.456,13.161-7.553c-21.217,1.381-41.78-10.978-49.862-31.855l-2.694-6.958l27.269-61.714
	c5.052,2.232,10.956-0.053,13.188-5.105c2.232-5.052-0.054-10.957-5.105-13.188l16.167-36.587
	C389.52,209.493,395.425,207.207,397.657,202.155z M437.222,186.84c-5.052-2.232-10.956,0.053-13.189,5.105
	c-2.232,5.052,0.054,10.957,5.105,13.188c5.052,2.232,10.956-0.053,13.189-5.105S442.274,189.072,437.222,186.84z M407.867,228.532
	c-5.052-2.232-10.956,0.054-13.189,5.105s0.054,10.956,5.105,13.188c5.052,2.232,10.956-0.054,13.189-5.105
	C415.205,236.669,412.919,230.765,407.867,228.532z"/>
<path style="fill:#FF4343;" d="M322.617,280.848c-0.293,0.887-0.602,1.773-0.926,2.658c-16.404,44.713-66.43,67.345-110.994,49.793
	c-10.055-3.96-18.921-9.688-26.425-16.665c-13.5,12.822-31.307,21.334-51.405,23.028c-46.351,3.907-87.631-30.863-91.757-77.195
	c-0.074-0.831-0.136-1.66-0.185-2.487c-2.286-38.106,29.054-69.803,67.224-69.161c3.511,0.059,7.064-0.099,10.645-0.486
	c3.575-0.386,7.073-0.99,10.484-1.795c18.445-4.356,36.866-0.548,51.506,8.958c19.709-17.021,48.916-21.374,73.739-8.574
	c3.121,1.609,6.376,3.042,9.758,4.284c3.375,1.238,6.779,2.248,10.193,3.038C312.17,204.968,334.756,244.107,322.617,280.848z"/>
<path style="fill:#F72C2C;" d="M149.709,336.53c-5.39,1.575-11.019,2.641-16.842,3.132c-46.351,3.907-87.631-30.862-91.757-77.194
	c-0.074-0.83-0.136-1.66-0.185-2.486c-2.286-38.106,29.054-69.803,67.224-69.161c3.077,0.052,6.188-0.074,9.321-0.363
	c-28.201,8.568-48.577,35.314-46.718,66.301c0.05,0.827,0.111,1.656,0.185,2.486C74.672,301.196,108.869,333.665,149.709,336.53z
	 M133.616,187.681c1.443-0.069,2.893-0.108,4.358-0.084c3.511,0.06,7.064-0.099,10.645-0.486c0.411-0.044,0.817-0.102,1.226-0.151
	C144.528,186.538,139.087,186.762,133.616,187.681z M163.605,221.117c-0.322,0.763-0.635,1.534-0.936,2.311
	c-16.84,43.36,4.748,92.826,48.028,109.871c5.438,2.142,10.956,3.681,16.486,4.659c-35.338-20.673-51.597-64.938-36.349-104.198
	c0.302-0.777,0.614-1.548,0.936-2.311c12.07-28.599,42.191-43.541,71.268-38.72c-2.936-1.129-5.781-2.396-8.516-3.806
	C220.592,171.427,178.449,185.946,163.605,221.117z M278.742,197.399c1.324,0.578,2.641,1.186,3.943,1.857
	c3.121,1.609,6.376,3.043,9.757,4.284c0.388,0.142,0.777,0.271,1.166,0.407C289.031,201.212,284.053,199.001,278.742,197.399z"/>
<path style="fill:#A39C12;" d="M149.587,186.61l-19.432,10.842l-6.439,21.299c-0.511,1.69-2.801,1.938-3.661,0.396l-10.841-19.432
	l-21.299-6.439c-1.69-0.511-1.937-2.801-0.396-3.661l19.432-10.842l6.439-21.299c0.511-1.69,2.801-1.938,3.661-0.396l10.841,19.432
	l21.299,6.439C150.881,183.46,151.129,185.75,149.587,186.61z M294.801,200.063l-16.237-15.214l-1.104-22.224
	c-0.088-1.763-2.25-2.557-3.457-1.268l-15.214,16.237l-22.224,1.104c-1.763,0.087-2.557,2.25-1.268,3.457l16.237,15.214
	l1.104,22.224c0.088,1.763,2.25,2.557,3.457,1.269l15.214-16.238l22.224-1.104C295.296,203.433,296.089,201.27,294.801,200.063z"/>
<path style="fill:#D8694B;" d="M281,300h180l-39.458,151.258C376.907,489.137,319.128,512,256,512s-120.907-22.863-165.542-60.742
	L51,300h180H281z"/>
<path style="fill:#C5573A;" d="M476,290v20c0,5.523-4.477,10-10,10h-76c5.743,0,10.355,4.841,9.978,10.665
	c-0.344,5.315-4.995,9.335-10.321,9.335H116.321c-13.096,0-22.658,12.377-19.352,25.048l9.307,35.676
	c1.152-0.463,2.407-0.724,3.724-0.724h59.658c5.326,0,9.977,4.019,10.321,9.335C180.355,415.159,175.743,420,170,420h-58.696
	l8.154,31.258c41.193,34.958,93.586,57.111,151.042,60.322c-4.801,0.268-9.632,0.42-14.5,0.42
	c-63.128,0-120.907-22.863-165.542-60.742L56.217,320H46c-5.523,0-10-4.477-10-10v-20c0-5.523,4.477-10,10-10h420
	C471.523,280,476,284.477,476,290z M200,370c0-5.523-4.477-10-10-10h-40c-5.523,0-10,4.477-10,10s4.477,10,10,10h40
	C195.523,380,200,375.523,200,370z M190,450h40c5.523,0,10-4.477,10-10s-4.477-10-10-10h-40c-5.523,0-10,4.477-10,10
	S184.477,450,190,450z M210,500h40c5.523,0,10-4.477,10-10s-4.477-10-10-10h-40c-5.523,0-10,4.477-10,10S204.477,500,210,500z
	 M380,410h-50c-5.523,0-10,4.477-10,10s4.477,10,10,10h50c5.523,0,10-4.477,10-10S385.523,410,380,410z M400,360h-50
	c-5.523,0-10,4.477-10,10s4.477,10,10,10h50c5.523,0,10-4.477,10-10S405.523,360,400,360z M320,440h-40c-5.523,0-10,4.477-10,10
	s4.477,10,10,10h40c5.523,0,10-4.477,10-10S325.523,440,320,440z M300,390c0-5.523-4.477-10-10-10h-60c-5.523,0-10,4.477-10,10
	s4.477,10,10,10h60C295.523,400,300,395.523,300,390z"/>
<path style="fill:#D8694B;" d="M466,320H71.667c-5.523,0-10-4.477-10-10v-20c0-5.523,4.477-10,10-10H466c5.523,0,10,4.477,10,10v20
	C476,315.523,471.523,320,466,320z"/>
<g>
</g>
<g>
</g>
<g>
</g>
<g>
</g>
<g>
</g>
<g>
</g>
<g>
</g>
<g>
</g>
<g>
</g>
<g>
</g>
<g>
</g>
<g>
</g>
<g>
</g>
<g>
</g>
<g>
</g>
</svg>
