<svg id="Capa_1" enable-background="new 0 0 512 512" height="512" viewBox="0 0 512 512" width="512" xmlns="http://www.w3.org/2000/svg"><g><g><path d="m91.98 448.986h328.04c49.72-44.841 80.98-109.76 80.98-181.986 0-135.31-109.69-245-245-245s-245 109.69-245 245c0 72.226 31.26 137.145 80.98 181.986z" fill="#ffe07d"/></g><g><path d="m256 494.915 32.787 14.894c50.128-6.707 95.461-28.561 131.233-60.823l-67.291-181.986h-193.458l-67.291 181.986c35.773 32.262 81.105 54.116 131.233 60.823z" fill="#fda554"/></g><g><path d="m337.468 325.633c12.369-2.148 23.918-4.703 34.137-7.585l-18.876-51.048h-193.458l-67.291 181.986c16.122 14.54 34.189 26.964 53.758 36.845 30.932-83.655 103.856-144.935 191.73-160.198z" fill="#fd9250"/></g><g><path d="m214.13 259.43c-34.321 37.619-50.448 148.558-47.862 162.235s23.797 0 23.797 0-.824 58.502 5.87 67.244c6.694 8.741 20.538-12.534 20.538-12.534s2.269 15.337 6.737 33.436c10.727 1.435 21.67 2.19 32.79 2.19s22.062-.755 32.789-2.19c4.468-18.098 6.738-33.436 6.738-33.436s13.844 21.276 20.538 12.534c6.694-8.741 5.87-67.244 5.87-67.244s21.21 13.677 23.797 0-13.541-124.615-47.862-162.235z" fill="#faf5dc"/></g><g><path d="m260.895 476.374s-13.844 21.276-20.538 12.534c-6.694-8.741-5.87-67.244-5.87-67.244s-21.21 13.677-23.797 0 13.54-124.615 47.862-162.235h-44.422c-34.321 37.619-50.448 148.558-47.862 162.235s23.797 0 23.797 0-.824 58.502 5.87 67.244c6.694 8.741 20.538-12.534 20.538-12.534s2.269 15.337 6.737 33.436c10.727 1.435 21.67 2.19 32.79 2.19 3.944 0 7.864-.1 11.761-.286-3.939-17.013-6.866-35.34-6.866-35.34z" fill="#f5ebcd"/></g><g><path d="m457.887 1.467c38.05 8.556-66.446 133.679-66.446 133.679l-65.506-110.565s93.903-31.67 131.952-23.114z" fill="#fda554"/></g><g><path d="m423.688 91.497-5.504-11.165h-.397c-15.409-27.133-36.199-49.177-60.729-65.155-18.197 5.046-31.122 9.404-31.122 9.404l65.506 110.565s15.765-18.879 32.818-42.469z" fill="#fd9250"/></g><g><path d="m457.889 1.467c15.903 3.576 6.9 27.515-8.96 54.17-38.169-9.816-48.772-36.26-51.713-50.178 22.802-4.582 45.93-7.308 60.673-3.992z" fill="#365e7d"/></g><g><path d="m450.938 15.545c5.434 6.337-31.442 73.113-69.835 102.153l-24.953-42.119s89.355-66.371 94.788-60.034z" fill="#df6b57"/></g><g><path d="m54.113 1.467c-38.05 8.556 66.446 133.679 66.446 133.679l65.506-110.565c0 0-93.903-31.67-131.952-23.114z" fill="#fda554"/></g><g><path d="m120.559 135.146 65.506-110.565s-12.925-4.358-31.122-9.404c-24.53 15.978-45.32 38.022-60.729 65.155h-.404l-5.497 11.165-.572 1.179c17.053 23.591 32.818 42.47 32.818 42.47z" fill="#fd9250"/></g><g><path d="m54.113 1.467c-15.903 3.576-6.9 27.515 8.96 54.17 38.169-9.816 48.772-36.26 51.713-50.178-22.802-4.582-45.93-7.308-60.673-3.992z" fill="#365e7d"/></g><g><path d="m61.062 15.545c-5.434 6.337 31.442 73.113 69.835 102.153l24.954-42.119c-.001 0-89.356-66.371-94.789-60.034z" fill="#df6b57"/></g><g><path d="m92.038 246.111h327.924l21.004-10.09c-.971-33.649-7.085-78.032-34.337-133.865-.137-.286-.277-.571-.415-.856-.159-.324-.308-.643-.469-.968h-.007c-26.794-54.746-79.915-94.633-149.738-94.633s-122.944 39.887-149.738 94.634h-.007c-.161.325-.31.644-.469.968-.138.285-.278.57-.415.856-27.253 55.833-33.366 100.215-34.337 133.865z" fill="#fcb858"/></g><g><path d="m214.793 246.111c-80.692-76.381-81.119-195.072-33.502-223.087-33.167 16.721-58.881 44.313-75.029 77.308h-.007c-.161.325-.31.644-.469.968-.138.285-.278.57-.415.856-27.253 55.833-33.366 100.215-34.337 133.865l21.004 10.09z" fill="#fda554"/></g><g><path d="m431.144 252.727c6.22-3.217 10.024-9.706 9.822-16.706-20.465 0-60.726-22.575-60.726-83.781s-50.859-81.037-75.343-52.88-38.819 90.916-38.819 90.916h-20.155s-14.335-62.759-38.819-90.916-75.343-8.327-75.343 52.88-40.261 83.781-60.726 83.781c-.202 7 3.602 13.489 9.822 16.706 23.796 12.307 88.428 40.908 175.144 40.908s151.347-28.602 175.143-40.908z" fill="#fff"/></g><g><path d="m149.092 101.244c-10.203 10.969-17.331 28.082-17.331 50.995 0 61.206-40.261 83.781-60.726 83.781-.202 7 3.602 13.489 9.822 16.706 23.796 12.306 88.428 40.908 175.144 40.908 11.083 0 21.802-.469 32.124-1.31-97.593-38.565-138.364-125.202-139.033-191.08z" fill="#faf5dc"/></g><g><ellipse cx="256" cy="280.687" fill="#eadbb7" rx="36.287" ry="28.368"/></g><g><path d="m314.509 227.735c0-42.86-26.195-97.491-58.509-97.491s-58.509 54.631-58.509 97.491 26.195 57.717 58.509 57.717 58.509-14.857 58.509-57.717z" fill="#faf5dc"/></g><g><path d="m233.779 227.735c0-34.458 16.934-76.518 40.365-91.686-5.713-3.698-11.81-5.805-18.144-5.805-32.313 0-58.509 54.631-58.509 97.491s26.195 57.718 58.509 57.718c6.335 0 12.43-.581 18.144-1.823-23.429-5.09-40.365-21.438-40.365-55.895z" fill="#f5ebcd"/></g><g><path d="m288.19 220.37c0 17.778-14.412 32.19-32.19 32.19s-32.19-14.412-32.19-32.19 64.38-17.778 64.38 0z" fill="#365e7d"/></g><g><path d="m247.628 207.849c0-.138.015-.268.023-.402-12.877 1.282-23.841 5.587-23.841 12.923 0 17.778 14.412 32.19 32.19 32.19 4.605 0 8.981-.974 12.943-2.716-12.426-6.393-21.315-23.282-21.315-41.995z" fill="#2b4d66"/></g><g><circle cx="182.491" cy="135.947" fill="#365e7d" r="15"/></g><g><circle cx="182.491" cy="125.947" fill="#fff" r="7.5"/></g><g><circle cx="329.509" cy="135.947" fill="#365e7d" r="15"/></g><g><circle cx="329.509" cy="125.947" fill="#fff" r="7.5"/></g></g></svg>