<svg id="Capa_1" enable-background="new 0 0 512 512" height="512" viewBox="0 0 512 512" width="512" xmlns="http://www.w3.org/2000/svg"><g><path d="m512 256c0 141.38-114.62 256-256 256-116.81 0-215.36-78.25-246.08-185.19 37.16-29.79 34.24-87.23-5.77-113.08l-.61-.4c5.07-30.24 15.45-58.67 30.14-84.33 44.12-77.07 127.16-129 222.32-129s178.2 51.93 222.32 129c21.43 37.43 33.68 80.78 33.68 127z" fill="#bf77f2"/><path d="m512 256c0 141.38-114.62 256-256 256-116.81 0-215.36-78.25-246.08-185.19 37.16-29.79 34.24-87.23-5.77-113.08l-.61-.4c5.07-30.24 15.45-58.67 30.14-84.33 19.26 33.65 45.94 62.5 77.81 84.33 41.13 28.19 90.9 44.67 144.51 44.67 22.98 0 45.26-3.03 66.45-8.72 66.55-17.83 122.41-61.82 155.87-120.28 21.43 37.43 33.68 80.78 33.68 127z" fill="#a253db"/><g><path d="m391.95 409.97h-82.25c-40.4 0-79.14-16.05-107.72-44.61l-12.93-12.94c-8.2-8.2-17.86-14.6-28.37-18.96-10.51-4.35-21.86-6.65-33.46-6.65h-117.3c-6.46-22.49-9.92-46.24-9.92-70.81 0-14.54 1.21-28.79 3.54-42.67h252.04c19.8 0 38.78 7.86 52.78 21.86l14.09 14.09 38.81 38.81c2.16 2.15 3.24 4.98 3.24 7.82 0 2.82-1.08 5.65-3.24 7.8-17.51 17.52-45.91 17.52-63.41 0l-22.27-22.25c-7.88-7.89-18.6-12.3-29.75-12.24-14.42.07-21.51 17.62-11.32 27.82l42.39 42.39c16.91 16.91 39.85 26.41 63.77 26.41h24.31c12.19 0 23.23 4.94 31.21 12.93 3.07 3.07 5.68 6.58 7.73 10.44.15.27.29.54.43.81 4.64 9.14-2.15 19.95-12.4 19.95z" fill="#ffc0a4"/><path d="m345.513 189.023c-7.089 6.669-16.22 10.001-25.362 10.001-9.137 0-18.278-3.332-25.367-10.001-14.193-13.344-15.466-35.018-3.82-49.858 4.749-6.054 9.211-12.32 13.604-18.639l12.002-17.265c.87-1.247 2.228-1.873 3.581-1.873 1.358 0 2.711.626 3.576 1.873l12.002 17.265c4.393 6.319 8.855 12.585 13.604 18.639 11.646 14.84 10.373 36.515-3.82 49.858z" fill="#fff"/><path d="m345.513 189.023c-7.089 6.669-16.22 10.001-25.362 10.001v-97.637c1.358 0 2.711.626 3.576 1.873l12.002 17.265c4.393 6.319 8.855 12.585 13.604 18.639 11.646 14.841 10.373 36.516-3.82 49.859z" fill="#b0edf7"/><ellipse cx="264.675" cy="93.093" fill="#b0edf7" rx="23.815" ry="23.815" transform="matrix(.23 -.973 .973 .23 113.263 329.299)"/><circle cx="448.37" cy="181.548" fill="#b0edf7" r="17.477"/><circle cx="409.964" cy="320.875" fill="#b0edf7" r="38.406"/><ellipse cx="388.151" cy="229.277" fill="#b0edf7" rx="21.812" ry="21.812" transform="matrix(.707 -.707 .707 .707 -48.437 341.618)"/><path d="m391.95 409.97h-82.25c-40.4 0-79.14-16.05-107.72-44.61l-12.93-12.94c-8.2-8.2-17.86-14.6-28.37-18.96-10.51-4.35-21.86-6.65-33.46-6.65h-117.3c-5.56-19.34-8.89-39.61-9.72-60.54h85.25c45.79 0 89.71 18.2 122.09 50.58l21.94 21.93c32.32 32.32 76.15 50.47 121.86 50.45l52.58-.02c.15.27.29.54.43.81 4.64 9.14-2.15 19.95-12.4 19.95z" fill="#ffa87a"/><g fill="#fff"><ellipse cx="272.27" cy="85.497" rx="7.596" ry="7.596" transform="matrix(.23 -.973 .973 .23 126.505 330.841)"/><circle cx="394.242" cy="232.874" r="11.595"/><circle cx="396.465" cy="332.095" r="11.595"/><path d="m384.87 218.834c0 3.04-2.464 5.504-5.504 5.504s-5.504-2.464-5.504-5.504 2.464-5.504 5.504-5.504 5.504 2.464 5.504 5.504z"/><path d="m459.378 177.799c0 3.04-2.464 5.504-5.504 5.504s-5.504-2.464-5.504-5.504 2.464-5.504 5.504-5.504c3.04.001 5.504 2.465 5.504 5.504z"/></g></g><path d="m512 256c0 141.38-114.62 256-256 256s-256-114.62-256-256c0-46.22 12.25-89.57 33.68-127 44.12-77.07 127.16-129 222.32-129s178.2 51.93 222.32 129c21.43 37.43 33.68 80.78 33.68 127z" fill="none"/><g><g><path d="m259.294 157.27v18.12h-18.121v18.114h-18.114v-18.114h-18.12v-18.12h18.12v-18.121h18.114v18.121z" fill="#ffdc00"/></g><path d="m259.294 157.27v18.12h-18.121v18.114h-9.053v-54.355h9.053v18.121z" fill="#ff9f00"/></g><g><g><path d="m428.037 102.915v18.12h-18.12v18.114h-18.114v-18.114h-18.12v-18.12h18.12v-18.12h18.114v18.12z" fill="#ffdc00"/></g><path d="m428.037 102.915v18.12h-18.12v18.114h-9.054v-54.354h9.054v18.12z" fill="#ff9f00"/></g><g><g><path d="m487.857 246.943v18.12h-18.121v18.114h-18.114v-18.114h-18.12v-18.12h18.12v-18.12h18.114v18.12z" fill="#ffdc00"/></g><path d="m487.857 246.943v18.12h-18.121v18.114h-9.054v-54.354h9.054v18.12z" fill="#ff9f00"/></g></g></svg>