<svg id="Capa_1" enable-background="new 0 0 512 512" height="512" viewBox="0 0 512 512" width="512" xmlns="http://www.w3.org/2000/svg"><g><path d="m512 256c0 31.4-5.66 61.48-16.01 89.28-143.85 99.93-335.05 98.41-477.3-3.79l-5.4-3.88c-6.78-20.17-11.12-41.47-12.66-63.55-.42-5.96-.63-11.99-.63-18.06 0-46.22 12.25-89.57 33.68-127 44.12-77.07 127.16-129 222.32-129s178.2 51.93 222.32 129c12.98 22.67 22.59 47.52 28.15 73.86 3.46 16.36 5.35 33.28 5.52 50.62.01.84.01 1.68.01 2.52z" fill="#92eaff"/><g><path d="m512 256c0 31.4-5.65 61.48-16.01 89.28-143.85 99.93-335.05 98.41-477.3-3.79l-5.4-3.88c-8.62-25.63-13.29-53.08-13.29-81.61 0-46.22 12.25-89.57 33.68-127 44.12 77.07 127.16 129 222.32 129s178.2-51.93 222.32-129c21.43 37.43 33.68 80.78 33.68 127z" fill="#63dbfa"/></g><path d="m495.99 345.28c-3.1 8.34-6.63 16.48-10.56 24.38-2.2 4.46-4.54 8.84-7 13.15-4.14 7.25-8.62 14.27-13.43 21.05-2.09 2.95-4.24 5.86-6.46 8.71h-266.58v-57.57c5.57 4.15 18.64 7.37 28.56-7.88 3.79-5.82 6.64-13.76 13.51-14.77 9.09-1.35 17.08 10.56 25.72 7.43 8.67-3.13 7.5-17.78 15.88-21.62 10.27-4.71 20.48 12.03 31.32 8.85 11.51-3.38 9.33-24.5 20.98-27.37 9.89-2.44 16.83 11.43 26.98 12.3 5.3.45 10.19-2.81 14.13-6.39 5.77-5.24 13.81-13.94 22.39-7.87 3.84 2.73 5.95 7.19 8.53 11.14 2.57 3.94 6.32 7.79 11.03 7.89 4.35.09 8.74-3.07 12.77-1.45 7.08 2.84 3.38 15.3 9.56 19.77 7.19 5.2 17.5-6.45 25.4-2.41 7.14 3.66 4.9 16.44 12.14 19.92 4.63 2.22 9.89-.97 14.19-3.77 3.23-2.11 7.39-4.04 10.94-3.49z" fill="#00a23e"/><g><path d="m426.857 352.624h-12.401l.664-20.78.816-25.528h9.44l.817 25.528z" fill="#ec771b"/><path d="m426.857 352.624h-5.963v-46.308h4.482l.817 25.528z" fill="#c55732"/><path d="m420.894 328.365v-22.049h-4.958l-.705 22.049z" fill="#c55732"/><path d="m426.082 328.365-.706-22.049h-4.482v22.049z" fill="#a44e3e"/><g><path d="m440.153 314.441c-5.333 5.25-12.297 7.875-19.26 7.875-6.962 0-13.925-2.625-19.26-7.875-8.509-8.374-10.21-20.912-5.105-30.952 5.339-10.5 10.915-20.877 15.452-31.748l8.913-21.356 8.898 21.313c4.545 10.887 10.128 21.281 15.472 31.799 5.101 10.038 3.398 22.572-5.11 30.944z" fill="#43af3e"/><path d="m440.153 314.441c-5.333 5.25-12.297 7.875-19.26 7.875-3.303 0-6.606-2.625-9.138-7.875-4.092-8.488-4.866-21.254-2.322-31.361 3.539-14.055 6.674-28.531 9.579-43.199l1.88-9.496 8.898 21.313c4.545 10.887 10.128 21.281 15.472 31.799 5.102 10.038 3.399 22.572-5.109 30.944z" fill="#00a23e"/><path d="m440.153 314.441c-5.333 5.25-12.297 7.875-19.26 7.875v-91.931l8.898 21.313c4.545 10.887 10.128 21.281 15.472 31.799 5.101 10.038 3.398 22.572-5.11 30.944z" fill="#008839"/></g></g><g><g><g><g><path d="m263.521 379.021h-43.615l6.337-101.023c.146-2.078 1.872-3.684 3.95-3.684h23.048c2.078 0 3.804 1.606 3.95 3.684z" fill="#fff"/><path d="m263.521 379.021h-32.674l3.16-101.023c.069-2.078.927-3.684 1.966-3.684h17.269c2.078 0 3.804 1.606 3.95 3.684z" fill="#d1f6ff"/><path d="m263.521 379.021h-21.88v-104.707h11.601c2.078 0 3.804 1.606 3.95 3.684z" fill="#92eaff"/><g><g><path d="m279.142 268.87-34.452 24.044-2.902 4.156-21.142 30.296c-2.044 2.928-6.234 3.297-8.759.773l-8.218-8.227c-2.525-2.516-2.156-6.707.773-8.751l34.452-24.044 2.894-4.148 21.15-30.304c2.044-2.928 6.226-3.298 8.75-.773l8.227 8.227c2.516 2.516 2.146 6.707-.773 8.751z" fill="#605f74"/><path d="m279.142 268.87-34.452 24.044-2.902 4.156v-14.1l21.15-30.304c2.044-2.928 6.226-3.298 8.75-.773l8.227 8.227c2.516 2.515 2.146 6.706-.773 8.75z" fill="#58586b"/><path d="m279.769 319.913-8.227 8.227c-2.525 2.525-6.707 2.155-8.75-.773l-21.15-30.304-2.894-4.148-34.452-24.044c-2.928-2.044-3.298-6.234-.773-8.75l8.218-8.227c2.525-2.525 6.715-2.155 8.759.773l21.142 30.296 2.902 4.156 34.452 24.044c2.919 2.043 3.297 6.233.773 8.75z" fill="#6e6f83"/><path d="m279.769 319.913-8.227 8.227c-2.525 2.525-6.707 2.155-8.75-.773l-21.15-30.304v-14.1l2.902 4.156 34.452 24.044c2.919 2.043 3.297 6.233.773 8.75z" fill="#605f74"/></g><path d="m247.369 295.748c-1.58 1.58-3.65 2.37-5.728 2.37-2.07 0-4.148-.79-5.728-2.37-3.16-3.169-3.16-8.295 0-11.455 1.58-1.58 3.658-2.379 5.728-2.379 2.078 0 4.148.799 5.728 2.379 3.169 3.16 3.169 8.286 0 11.455z" fill="#7e7f92"/><path d="m247.369 295.748c-1.58 1.58-3.65 2.37-5.728 2.37v-16.204c2.078 0 4.148.799 5.728 2.379 3.169 3.16 3.169 8.286 0 11.455z" fill="#6e6f83"/><path d="m244.78 293.162c-.862.876-2 1.299-3.139 1.299-1.124 0-2.263-.423-3.139-1.299-1.737-1.737-1.737-4.555 0-6.292.876-.862 2.015-1.299 3.139-1.299 1.139 0 2.277.438 3.139 1.299 1.737 1.737 1.737 4.555 0 6.292z" fill="#fff"/><path d="m244.78 293.162c-.862.876-2 1.299-3.139 1.299v-8.891c1.139 0 2.277.438 3.139 1.299 1.737 1.738 1.737 4.556 0 6.293z" fill="#d0f6ff"/></g></g><path d="m269.963 382.402h-56.495l6.56-46.234h43.383z" fill="#7e7f92"/><path d="m269.963 382.402h-42.335l3.272-46.234h32.511z" fill="#6e6f83"/><path d="m269.963 382.402h-28.32v-46.234h21.768z" fill="#605f74"/><path d="m266.375 343.321h-49.325l1.425-9.875h46.466z" fill="#6e6f83"/><path d="m266.375 343.321h-36.96l.713-9.875h34.813z" fill="#605f74"/><path d="m253.185 363.192v19.21h-22.936v-19.21c0-6.312 5.101-11.438 11.395-11.473h.069c6.337.001 11.472 5.136 11.472 11.473z" fill="#54545e"/><path d="m253.185 363.192v19.21h-11.541v-30.682h.069c6.337 0 11.472 5.135 11.472 11.472z" fill="#454556"/></g></g><path d="m266.375 343.321h-24.731v-9.875h23.297z" fill="#58586b"/><path d="m249.475 320.608c0 4.285-3.478 7.754-7.754 7.754h-.077c-4.251-.043-7.686-3.495-7.686-7.754s3.435-7.711 7.686-7.754h.077c4.276 0 7.754 3.469 7.754 7.754z" fill="#605f74"/><path d="m249.475 320.608c0 4.285-3.478 7.754-7.754 7.754h-.077v-15.509h.077c4.276.001 7.754 3.47 7.754 7.755z" fill="#58586b"/></g><path d="m485.43 369.66c-2.2 4.46-4.54 8.84-7 13.15-4.14 7.25-8.62 14.27-13.43 21.05l-39.33 20.35c-106.3 55-232.79 54.53-338.68-1.26l-4.6-2.42c20.86-4.14 41.18-8.1 60.95-15.03 52.98-18.55 105.97-37.11 158.95-55.67 12.33-4.31 25.01-8.69 38.27-11.89 10.87-2.62 22.13-4.44 33.9-4.78 3.67-.09 7.31-.05 10.91.14 25.06 1.25 48.63 9 68.31 18.58.72.34 1.42.7 2.13 1.05 7.28 3.65 14.18 7.54 20.93 11.53 2.92 1.72 5.81 3.46 8.69 5.2z" fill="#53af17"/><path d="m478.43 382.81c-4.14 7.25-8.62 14.27-13.43 21.05l-39.33 20.35c-89.75 46.44-193.89 53.33-287.87 20.77 60-23.44 118.39-46.39 182.69-68.29 25-8.52 50.55-17.13 76.97-17.2 7.55-.02 22.77 2.54 33.76 4.81v.01c3.55.74 21.74 6.83 33.27 12.07 4.35 1.97 9.06 4.14 13.94 6.43z" fill="#5dbf1d"/><path d="m476.741 364.456c-1.695 3.602-5.797 7.516-12.248 11.921-16.849 11.503-49.737 26.313-97.747 47.535-29.687 13.116-46.732 37.653-54.256 54.682h-104.37c3.725-9.915 12.436-21.958 29.367-36.81 42.393-37.194 128.686-50.826 193.733-77.475 2.489-1.015 4.937-2.055 7.352-3.111 8.285-3.627 13.181-6.492 15.105-9.317.721.344 1.424.696 2.129 1.048 7.287 3.651 14.181 7.54 20.935 11.527z" fill="#d85e39"/><path d="m154.3 332.04c-4.98 2.52-10.4 3.75-15.51 6.28-5.64 2.79-11.36 6.23-17.25 8.44-.098.048-.196.096-.294.143-19.144 9.347-40.163 14.217-61.467 14.217h-37.259s0 0-.01 0c-3.44-7.64-6.53-15.48-9.22-23.51 1.99-1.79 3.78-3.8 4.19-6.37.53-3.25-1.34-6.39-1.76-9.65-.76-5.83 3.87-11.81 9.7-12.54 2.37-.3 4.76.17 7.15.22s4.98-.43 6.59-2.19c1.7-1.85 1.88-4.57 1.97-7.08.19-5.03-.37-9.35 3.8-12.86 3.02-2.55 7.23-3.69 11.06-2.49 2.94.95 5.36 3.01 7.95 4.69s5.71 3.04 8.71 2.31c7-1.71 12.46-18.5 21.48-10.47 5.72 5.09 3.9 19.37 14.9 17.63 3.3-.52 5.99-2.79 8.86-4.51 2.86-1.72 6.57-2.91 9.44-1.2 4.03 2.39 3.49 8.36 5.67 12.52 4.07 7.75 11.08 3.2 17.33 3.86 4.39.47 8.42 3.6 9.88 7.78 1.89 5.39-.82 12.19-5.91 14.78z" fill="#00a23e"/><g><g><path d="m129.239 325.549h-12.26l.656-20.544.808-25.237h9.332l.808 25.237z" fill="#ec771b"/><path d="m129.239 325.549h-5.895v-45.781h4.431l.808 25.237z" fill="#c55732"/><path d="m123.344 300.968v-21.2h-4.901l-.679 21.2z" fill="#c55732"/><path d="m128.454 300.968-.679-21.2h-4.431v21.2z" fill="#a44e3e"/><g><path d="m142.385 287.8c-5.273 5.191-12.157 7.786-19.041 7.786-6.883 0-13.767-2.595-19.041-7.786-8.412-8.279-10.094-20.674-5.047-30.6 5.278-10.381 10.791-20.64 15.276-31.387l8.812-21.114 8.797 21.071c4.493 10.763 10.013 21.039 15.296 31.437 5.042 9.925 3.358 22.316-5.052 30.593z" fill="#43af3e"/><path d="m142.385 287.8c-5.273 5.191-12.157 7.786-19.041 7.786-3.266 0-6.531-2.595-9.034-7.786-4.046-8.392-4.811-21.013-2.295-31.005 3.498-13.895 6.598-28.207 9.471-42.708l1.858-9.388 8.797 21.071c4.493 10.763 10.013 21.039 15.296 31.437 5.042 9.925 3.358 22.316-5.052 30.593z" fill="#00a23e"/><path d="m142.385 287.8c-5.273 5.191-12.157 7.786-19.041 7.786v-90.887l8.797 21.071c4.493 10.763 10.013 21.039 15.296 31.437 5.042 9.925 3.358 22.316-5.052 30.593z" fill="#008839"/></g></g><g><path d="m67.717 352.178h-17.465l.935-29.266 1.15-35.952h13.295l1.15 35.952z" fill="#ec771b"/><path d="m67.717 352.178h-8.399v-65.218h6.314l1.15 35.952z" fill="#c55732"/><path d="m59.318 316.911v-29.951h-6.981l-.958 29.951z" fill="#c55732"/><path d="m66.59 316.911-.958-29.951h-6.314v29.951z" fill="#a44e3e"/><g><path d="m86.443 298.403c-7.511 7.394-17.318 11.091-27.125 11.091-9.805 0-19.611-3.697-27.125-11.091-11.983-11.794-14.38-29.452-7.19-43.591 7.519-14.788 15.372-29.403 21.761-44.713l12.553-30.078 12.532 30.017c6.401 15.332 14.264 29.971 21.79 44.784 7.184 14.138 4.786 31.79-7.196 43.581z" fill="#43af3e"/><path d="m86.443 298.403c-7.511 7.394-17.318 11.091-27.125 11.091-4.652 0-9.304-3.697-12.869-11.091-5.763-11.954-6.853-29.934-3.269-44.168 4.984-19.794 9.4-40.183 13.491-60.84l2.647-13.374 12.532 30.017c6.401 15.332 14.264 29.971 21.79 44.784 7.183 14.138 4.785 31.79-7.197 43.581z" fill="#00a23e"/><path d="m86.443 298.403c-7.511 7.394-17.318 11.091-27.125 11.091v-129.473l12.532 30.017c6.401 15.332 14.264 29.971 21.79 44.784 7.183 14.138 4.785 31.79-7.197 43.581z" fill="#008839"/></g></g></g><path d="m464.493 376.376c-16.849 11.503-49.737 26.313-97.747 47.535-29.687 13.116-46.732 37.653-54.256 54.682h-104.37c3.725-9.915 12.436-21.958 29.367-36.81 42.393-37.194 128.686-50.826 193.733-77.475 3.554.737 21.737 6.829 33.273 12.068z" fill="#ed784a"/><path d="m465 403.86c-6.12 8.64-12.77 16.89-19.89 24.69-46.66 51.1-113.74 83.22-188.32 83.45h-.79c-74.9 0-142.29-32.17-189.11-83.45-14.46-15.84-26.96-33.5-37.1-52.61-2.58-4.85-5-9.79-7.27-14.82 31.32-22.65 65.29-41.24 103.24-42.26 13.34-.36 26.72 1.57 39.42 5.61 7.35 2.33 14.48 5.38 21.23 9.09 7.2 3.97 14.82 8.06 22.62 12.2 15.51 8.25 31.75 16.69 46.97 24.69 4.72 2.48 9.33 4.92 13.8 7.29 85.32 45.32 135.32 59.71 195.2 26.12z" fill="#b6e337"/><path d="m464.97 403.88c-14.39 20.32-31.67 38.44-51.25 53.77-43.47 34.05-98.22 54.35-157.72 54.35v-141.55c4.72 2.48 9.33 4.92 13.8 7.29 85.3 45.31 135.31 59.71 195.17 26.14z" fill="#6cdc2d"/><path d="m413.72 457.65c-43.47 34.05-98.22 54.35-157.72 54.35-87.68 0-165.06-44.08-211.19-111.28 34.62-17.4 74-26.94 123.57-11.58 28.48 8.84 57.89 22.38 87.62 35.2 35 15.09 70.45 29.18 105.31 33.39 17.5 2.12 35.35 2.16 52.41-.08z" fill="#6cdc2d"/><path d="m413.72 457.64c-43.28 33.91-97.74 54.18-156.93 54.36h-.79v-87.66c35 15.09 70.45 29.18 105.31 33.39 17.5 2.12 35.35 2.16 52.41-.09z" fill="#5dbf1d"/><path d="m209.03 345.76c-14.06 13.4-26.73 28.32-38.63 44.02-14.78 19.48-28.38 40.15-42.06 60.51-4.35 6.49-8.75 13-13.22 19.49-25.17-16.62-47.23-37.57-65.12-61.79 8.06-6.45 16.12-12.91 24.18-19.36 9.93-7.96 19.87-15.91 29.8-23.87 19.01-15.21 39.09-30.88 61.2-40.29 7.35 2.33 14.48 5.38 21.23 9.09 7.2 3.97 14.82 8.06 22.62 12.2z" fill="#ed784a"/><path d="m170.4 389.78c-14.78 19.48-28.38 40.15-42.06 60.51-4.35 6.49-8.75 13-13.22 19.49-25.17-16.62-47.23-37.57-65.12-61.79 8.06-6.45 16.12-12.91 24.18-19.36 27.39-8.66 58.1-10.68 94.2.51.67.21 1.35.42 2.02.64z" fill="#f99568"/><g><g><g><g><path d="m375.267 348.682h-50.79l7.38-117.642c.17-2.42 2.18-4.29 4.6-4.29h26.84c2.42 0 4.43 1.87 4.6 4.29z" fill="#fff"/><path d="m375.267 348.682h-38.05l3.68-117.642c.08-2.42 1.08-4.29 2.29-4.29h20.11c2.42 0 4.43 1.87 4.6 4.29z" fill="#d1f6ff"/><path d="m375.267 348.682h-25.48v-121.932h13.51c2.42 0 4.43 1.87 4.6 4.29z" fill="#92eaff"/><g><g><path d="m393.457 220.41-40.12 28-3.38 4.84-24.62 35.28c-2.38 3.41-7.26 3.84-10.2.9l-9.57-9.58c-2.94-2.93-2.51-7.81.9-10.19l40.12-28 3.37-4.83 24.63-35.29c2.38-3.41 7.25-3.84 10.19-.9l9.58 9.58c2.93 2.93 2.5 7.81-.9 10.19z" fill="#605f74"/><path d="m393.457 220.41-40.12 28-3.38 4.84v-16.42l24.63-35.29c2.38-3.41 7.25-3.84 10.19-.9l9.58 9.58c2.93 2.93 2.5 7.81-.9 10.19z" fill="#58586b"/><path d="m394.187 279.85-9.58 9.58c-2.94 2.94-7.81 2.51-10.19-.9l-24.63-35.29-3.37-4.83-40.12-28c-3.41-2.38-3.84-7.26-.9-10.19l9.57-9.58c2.94-2.94 7.82-2.51 10.2.9l24.62 35.28 3.38 4.84 40.12 28c3.4 2.38 3.84 7.26.9 10.19z" fill="#6e6f83"/><path d="m394.187 279.85-9.58 9.58c-2.94 2.94-7.81 2.51-10.19-.9l-24.63-35.29v-16.42l3.38 4.84 40.12 28c3.4 2.38 3.84 7.26.9 10.19z" fill="#605f74"/></g><path d="m356.457 251.71c-1.84 1.84-4.25 2.76-6.67 2.76-2.41 0-4.83-.92-6.67-2.76-3.68-3.69-3.68-9.66 0-13.34 1.84-1.84 4.26-2.77 6.67-2.77 2.42 0 4.83.93 6.67 2.77 3.69 3.68 3.69 9.65 0 13.34z" fill="#7e7f92"/><path d="m356.457 251.71c-1.84 1.84-4.25 2.76-6.67 2.76v-18.87c2.42 0 4.83.93 6.67 2.77 3.69 3.68 3.69 9.65 0 13.34z" fill="#6e6f83"/><path d="m353.443 248.699c-1.003 1.02-2.329 1.513-3.655 1.513-1.309 0-2.635-.493-3.655-1.513-2.023-2.023-2.023-5.305 0-7.328 1.02-1.003 2.346-1.513 3.655-1.513 1.326 0 2.652.51 3.655 1.513 2.023 2.023 2.023 5.305 0 7.328z" fill="#fff"/><path d="m353.443 248.699c-1.003 1.02-2.329 1.513-3.655 1.513v-10.354c1.326 0 2.652.51 3.655 1.513 2.023 2.023 2.023 5.305 0 7.328z" fill="#d0f6ff"/></g></g><path d="m382.769 352.62h-65.79l7.64-53.84h50.52z" fill="#7e7f92"/><path d="m382.769 352.62h-49.3l3.81-53.84h37.86z" fill="#605f74"/><path d="m382.769 352.62h-32.98v-53.84h25.35z" fill="#605f74"/><path d="m378.59 307.11h-57.44l1.66-11.5h54.11z" fill="#6e6f83"/><path d="m378.59 307.11h-43.04l.83-11.5h40.54z" fill="#605f74"/><path d="m363.23 330.25v22.37h-26.71v-22.37c0-7.35 5.94-13.32 13.27-13.36h.08c7.38 0 13.36 5.98 13.36 13.36z" fill="#54545e"/><path d="m363.23 330.25v22.37h-13.44v-35.73h.08c7.38 0 13.36 5.98 13.36 13.36z" fill="#454556"/></g></g><path d="m378.59 307.11h-28.8v-11.5h27.13z" fill="#58586b"/><path d="m358.91 280.66c0 4.99-4.05 9.03-9.03 9.03h-.09c-4.95-.05-8.95-4.07-8.95-9.03s4-8.98 8.95-9.03h.09c4.98 0 9.03 4.04 9.03 9.03z" fill="#605f74"/><path d="m358.91 280.66c0 4.99-4.05 9.03-9.03 9.03h-.09v-18.06h.09c4.98 0 9.03 4.04 9.03 9.03z" fill="#58586b"/></g><g><path d="m163.309 162.516c0-.067.005-.134.005-.201 0-12.315-9.983-22.297-22.298-22.297-2.926 0-5.717.569-8.276 1.594-4.945-8.858-14.405-14.852-25.27-14.852-14.109 0-25.853 10.105-28.405 23.47-.761-.109-1.538-.169-2.329-.169-7.671 0-14.098 5.311-15.817 12.455z" fill="#fff"/><path d="m141.554 162.516c0-.039.003-.077.003-.116 0-7.081-5.74-12.821-12.821-12.821-1.682 0-3.287.327-4.759.916-2.843-5.094-8.283-8.54-14.531-8.54-8.113 0-14.866 5.81-16.334 13.496-.438-.063-.884-.097-1.339-.097-4.411 0-8.107 3.054-9.095 7.162z" fill="#dff7fd"/></g><g><path d="m472.634 169.264c0-.067.005-.133.005-.201 0-12.314-9.983-22.298-22.297-22.298-2.926 0-5.717.569-8.276 1.594-4.945-8.858-14.405-14.851-25.27-14.851-14.109 0-25.853 10.104-28.405 23.47-.761-.109-1.538-.169-2.329-.169-7.671 0-14.098 5.31-15.816 12.454h102.388z" fill="#fff"/><path d="m450.878 169.264c0-.039.003-.077.003-.116 0-7.081-5.74-12.821-12.822-12.821-1.682 0-3.287.327-4.759.916-2.843-5.094-8.283-8.54-14.531-8.54-8.113 0-14.866 5.81-16.334 13.496-.438-.063-.884-.097-1.339-.097-4.411 0-8.107 3.054-9.095 7.162z" fill="#dff7fd"/></g><g><path d="m330.474 80.173c.001-.091.007-.18.007-.271 0-16.611-13.466-30.076-30.076-30.076-3.946 0-7.711.768-11.164 2.15-6.669-11.948-19.431-20.033-34.086-20.033-19.032 0-34.872 13.63-38.315 31.659-1.026-.147-2.074-.227-3.141-.227-10.348 0-19.017 7.163-21.334 16.8h138.109z" fill="#fff"/><path d="m301.129 80.173c0-.052.004-.104.004-.156 0-9.552-7.743-17.294-17.294-17.294-2.269 0-4.434.441-6.419 1.236-3.835-6.871-11.173-11.519-19.6-11.519-10.944 0-20.052 7.837-22.032 18.204-.59-.084-1.193-.131-1.806-.131-5.95 0-10.935 4.119-12.268 9.66z" fill="#dff7fd"/></g></g></svg>