<svg id="Capa_1" enable-background="new 0 0 512 512" height="512" viewBox="0 0 512 512" width="512" xmlns="http://www.w3.org/2000/svg"><g><path d="m512 256c0 37.93-8.25 73.93-23.05 106.3-11.14 24.38-26 46.71-43.84 66.25-4.43 4.85-9.04 9.52-13.82 14.02-25.61 24.07-56.17 42.92-89.98 54.86l-13.16 2.25c-47.31 8.08-95.9 3.88-141.12-12.18l-92.52-32.86c-9.84-8.01-19.07-16.73-27.62-26.09-13.36-14.63-25.05-30.82-34.74-48.27-.8-1.44-1.59-2.88-2.36-4.34-2.38-4.47-4.62-9.01-6.73-13.64-8.21-17.94-14.4-36.99-18.28-56.87-1.75-8.88-3.03-17.93-3.82-27.12-.12-1.42-.23-2.83-.33-4.25-.26-3.69-.44-7.4-.53-11.14-.07-2.3-.1-4.61-.1-6.92 0-16.14 1.49-31.93 4.36-47.24 5.32-28.54 15.37-55.4 29.32-79.76 44.12-77.07 127.16-129 222.32-129s178.2 51.93 222.32 129c12.98 22.67 22.59 47.52 28.15 73.86 1.08 5.11 2.01 10.27 2.78 15.48 1.69 11.48 2.62 23.21 2.74 35.14.01.84.01 1.68.01 2.52z" fill="#fff9bb"/><g><path d="m512 256c0 35.82-7.36 69.93-20.66 100.89-.78 1.81-1.58 3.62-2.4 5.41-3.76 8.23-7.94 16.22-12.52 23.95-1.87 3.15-3.8 6.26-5.81 9.32-4.77 7.35-9.92 14.43-15.41 21.23-7.38 9.13-15.37 17.74-23.92 25.77-25.6 24.07-56.16 42.92-89.97 54.87 0-.01 0-.01 0-.01l-13.16 2.25c-47.31 8.08-95.9 3.88-141.12-12.18l-92.52-32.86c-23.17-18.85-42.97-41.67-58.37-67.44-22.95-38.37-36.14-83.25-36.14-131.2 0-46.22 12.25-89.57 33.68-127 44.12 77.07 127.16 129 222.32 129s178.2-51.93 222.32-129c15.5 27.07 26.19 57.23 30.92 89.34 1.82 12.29 2.76 24.86 2.76 37.66z" fill="#fff297"/></g><g><path d="m512 256c0 37.93-8.25 73.93-23.05 106.3h-465.89c-8.21-17.94-14.4-36.99-18.28-56.87-1.75-8.88-3.03-17.93-3.82-27.12-.12-1.42-.23-2.83-.33-4.25-.26-3.69-.44-7.4-.53-11.14-.07-2.3-.1-4.61-.1-6.92 0-16.14 1.49-31.93 4.36-47.24 13.56-5.82 29.16-6.19 43.51-1.28 16.48 5.64 29.49 18.58 33.85 33.67.18.21 1.79 2.4 2.03 2.7 15.41-8.63 35.62-10.21 52.51-4.11 16.9 6.11 30.02 19.74 34.09 35.42 10.68-7.72 30.42-7 43.26-2.5 9.23 3.24 16.79 9.81 20.95 17.74 3.11 5.92 9.76 9.78 17.17 9.78h63.15c6.31 0 12.1-2.83 15.68-7.4 7.08-9.03 17.84-16.56 29.05-20.4 14.16-4.86 30.48-4.59 44.42.72 2.86-22.29 22.85-42.06 45.7-51.94 18.33-7.93 40.3-8.78 59.52-2.82 1.69 11.48 2.62 23.21 2.74 35.14.01.84.01 1.68.01 2.52z" fill="#b6e337"/><path d="m512 256c0 37.92-8.25 73.92-23.06 106.3h-232.94v-62.12h58.88c6.31 0 12.1-2.83 15.68-7.4 7.08-9.03 17.84-16.56 29.05-20.4 14.16-4.86 30.48-4.59 44.42.72 2.86-22.29 22.85-42.06 45.7-51.94 18.32-7.93 40.29-8.78 59.51-2.82 1.82 12.29 2.76 24.86 2.76 37.66z" fill="#6cdc2d"/><path d="m240.04 320.5h-95.25l2.47-42.19 6.38-109.03 4.6-78.52h68.36l4.59 78.52 6.38 109.03z" fill="#fff"/><path d="m240.04 320.5h-71.44l4.43-151.22 2.3-78.52h51.27l4.59 78.52z" fill="#dff7fd"/><path d="m240.04 320.5h-47.62v-229.74h34.18l4.59 78.52z" fill="#c5f2f9"/><path d="m240.04 320.5h-95.25l2.47-42.19h90.31z" fill="#dff7fd"/><path d="m240.04 320.5h-71.44l1.24-42.19h67.73z" fill="#c5f2f9"/><path d="m240.04 320.5h-47.62v-42.19h45.15z" fill="#92eaff"/><path d="m231.19 169.28h-77.55l4.6-78.52h68.36z" fill="#6e6f83"/><path d="m231.19 169.28h-58.16l2.3-78.52h51.27z" fill="#605f74"/><path d="m231.19 169.28h-38.77v-78.52h34.18z" fill="#58586b"/><path d="m214.08 169.28h-43.32l.71-34.6c.24-11.4 9.54-20.52 20.94-20.52h.01c11.41 0 20.7 9.12 20.94 20.52z" fill="#fff"/><path d="m214.08 169.28h-21.66v-55.12c11.41 0 20.7 9.12 20.94 20.52z" fill="#dff7fd"/><path d="m503.73 320.78c-5.48 21.01-13.56 40.96-23.89 59.5-1.11 2.01-2.25 4-3.42 5.97-2.62 4.42-5.36 8.76-8.24 13-30.43 44.99-74.78 79.78-126.87 98.18l-13.16 2.25c-47.31 8.08-95.9 3.88-141.12-12.18l-92.5-32.85c-19.49-15.86-36.6-34.53-50.71-55.4-2.68-3.94-5.23-7.96-7.68-12.05-1.37-2.28-2.7-4.59-3.99-6.92-10.32-18.54-18.4-38.49-23.88-59.5z" fill="#63dbfa"/><path d="m468.18 399.25c-46.01 68.03-123.87 112.75-212.18 112.75-4.91 0-9.78-.14-14.62-.42-82.25-4.63-154.12-48.08-197.56-112.33z" fill="#dff7fd"/><path d="m479.84 380.28c-1.11 2.01-2.25 4-3.42 5.97-44.57 75.28-126.6 125.75-220.42 125.75v-131.72z" fill="#c5f2f9"/><path d="m431.29 442.57c-25.61 24.07-56.17 42.92-89.98 54.86-1.63-3-2.56-6.43-2.56-10.08 0-11.64-9.43-21.06-21.06-21.06h-9.91c-11.63 0-21.06-9.43-21.06-21.06v-2.66z" fill="#3dcaea"/><path d="m359.46 380.28c0 10.48-8.49 18.97-18.97 18.97h-71.9c-6.95 0-12.59 5.64-12.59 12.59 0 3.48-1.41 6.62-3.69 8.9s-5.43 3.69-8.9 3.69h-62.96c-8.34 0-15.1 6.76-15.1 15.1 0 4.17-1.69 7.95-4.43 10.69-2.73 2.73-6.51 4.42-10.68 4.42h-55.73c-9.84-8.01-19.07-16.73-27.62-26.09-13.36-14.63-25.05-30.82-34.74-48.27z" fill="#63dbfa"/><path d="m359.46 380.28c0 10.48-8.49 18.97-18.97 18.97h-71.9c-6.95 0-12.59 5.64-12.59 12.59v-31.56z" fill="#3dcaea"/><path d="m359.46 380.28h-327.31c-.8-1.44-1.59-2.88-2.36-4.34-2.38-4.47-4.62-9.01-6.73-13.64-8.21-17.94-14.4-36.99-18.28-56.87-1.75-8.88-3.03-17.93-3.82-27.12-.12-1.42-.23-2.83-.33-4.25-.26-3.69-.44-7.4-.53-11.14h87.16c16.92 0 34.16 10.76 42.35 24.95 5.17 8.96 14.61 14.6 24.95 14.6h55.51c11.44 0 24.5 3.46 32.38 11.15 3.28 3.2 5.83 7.02 7.53 11.15 4.51 10.9 14.88 18.22 26.68 18.22h31.28c22.92 0 46.24 16.62 51.52 37.29z" fill="#7e7f92"/><path d="m315.11 380.28h-282.96c-.8-1.44-1.59-2.88-2.36-4.34-2.38-4.47-4.62-9.01-6.73-13.64-8.21-17.94-14.4-36.99-18.28-56.87-1.75-8.88-3.03-17.93-3.82-27.12h49.64c16.93 0 34.17 10.77 42.36 24.96 5.16 8.96 14.6 14.59 24.95 14.59h55.5c11.45 0 24.5 3.46 32.38 11.15 3.29 3.2 5.83 7.03 7.54 11.15 4.51 10.9 14.88 18.23 26.68 18.23h31.28c16.82 0 33.86 8.95 43.82 21.89z" fill="#6e6f83"/><path d="m196.54 380.28h-164.39c-.8-1.44-1.59-2.88-2.36-4.34-11.6-21.81-20.13-45.51-25.01-70.51h18.7c16.93 0 34.17 10.77 42.36 24.96 5.16 8.96 14.6 14.59 24.95 14.59h55.5c11.45 0 24.5 3.46 32.38 11.15 3.29 3.2 5.83 7.03 7.54 11.15 2.2 5.34 5.82 9.82 10.33 13z" fill="#605f74"/><path d="m491.34 356.89c-.78 1.81-1.58 3.62-2.4 5.41-3.76 8.23-7.94 16.22-12.52 23.95-1.87 3.15-3.8 6.26-5.81 9.32-4.77 7.35-9.92 14.43-15.41 21.23-7.38 9.13-15.37 17.74-23.92 25.77h-144.56c3.86-15.09 20.88-27.23 37.62-27.23h22.83c8.61 0 16.19-5.34 19.48-13.3 1.24-3.01 3.1-5.8 5.49-8.14 5.76-5.61 15.29-8.14 23.64-8.14h40.53c7.55 0 14.44-4.11 18.21-10.65 5.98-10.36 18.57-18.22 30.92-18.22z" fill="#7e7f92"/><path d="m470.61 395.57c-4.77 7.35-9.92 14.43-15.41 21.23-7.38 9.13-15.37 17.74-23.92 25.77h-112.18c7.27-9.45 19.71-15.98 31.99-15.98h22.84c8.61 0 16.18-5.35 19.47-13.31 1.25-3.01 3.11-5.81 5.51-8.14 5.75-5.62 15.28-8.14 23.64-8.14h40.51c2.63 0 5.18-.5 7.55-1.43z" fill="#6e6f83"/><path d="m455.2 416.8c-7.38 9.13-15.37 17.74-23.92 25.77h-25.62c3.29-2.32 5.94-5.59 7.54-9.49 1.25-3.01 3.1-5.81 5.51-8.14 5.75-5.62 15.28-8.14 23.63-8.14z" fill="#605f74"/><path d="m226.6 79.27v11.49h-68.36v-11.49c0-18.72 15.06-33.94 33.74-34.17.15-.01.29-.01.44-.01 9.44 0 17.98 3.83 24.17 10.01 6.18 6.19 10.01 14.74 10.01 24.17z" fill="#fe3345"/><path d="m226.6 79.27v11.49h-51.27v-11.49c0-18.58 7.41-33.7 16.65-34.17.15-.01.29-.01.44-.01 9.44 0 17.98 3.83 24.17 10.01 6.18 6.19 10.01 14.74 10.01 24.17z" fill="#de1263"/><path d="m226.6 79.27v11.49h-34.18v-45.67c9.44 0 17.98 3.83 24.17 10.01 6.18 6.19 10.01 14.74 10.01 24.17z" fill="#ce0557"/><path d="m149.74 86.61h85.35v18.5h-85.35z" fill="#ff6378"/><path d="m171.4 86.61h63.69v18.5h-63.69z" fill="#fe3345"/><path d="m149.74 160.02h85.35v18.51h-85.35z" fill="#7e7f92"/><path d="m171.4 160.03h63.69v18.5h-63.69z" fill="#6e6f83"/><path d="m203.47 140.21c0 6.1-4.95 11.05-11.05 11.05s-11.05-4.95-11.05-11.05c0-6.11 4.95-11.06 11.05-11.06s11.05 4.95 11.05 11.06z" fill="#f9e073"/><path d="m192.42 86.61h42.67v18.5h-42.67z" fill="#de1263"/><path d="m203.47 140.21c0 6.1-4.95 11.05-11.05 11.05v-22.11c6.1 0 11.05 4.95 11.05 11.06z" fill="#ffc300"/><path d="m192.42 160.02h42.67v18.51h-42.67z" fill="#605f74"/><g><path d="m357.097 85.553c.097.144-.073.316-.224.229-7.554-4.318-17.331-3.249-23.778 3.189-2.658 2.668-4.398 5.893-5.23 9.297-.018.072-.081.123-.156.123h-6.617c-.075 0-.138-.05-.156-.123-.823-3.405-2.573-6.629-5.231-9.297-6.437-6.437-16.223-7.507-23.768-3.189-.151.086-.321-.085-.224-.229.709-1.061 1.532-2.063 2.462-3.001 7.72-7.72 20.24-7.72 27.96 0 .796.796 1.512 1.644 2.142 2.528.064.09.192.09.257 0 .628-.884 1.337-1.732 2.142-2.527 7.71-7.72 20.23-7.72 27.95 0 .937.937 1.761 1.939 2.471 3z" fill="#605f74"/><path d="m357.097 85.553c.097.144-.073.316-.224.229-7.554-4.318-17.331-3.249-23.778 3.189-2.658 2.668-4.398 5.893-5.23 9.297-.018.072-.081.123-.156.123h-3.139c-.091 0-.164-.074-.164-.164v-12.912c0-.035.011-.069.03-.097.652-.934 1.393-1.829 2.24-2.666 7.71-7.72 20.23-7.72 27.95 0 .937.938 1.761 1.94 2.471 3.001z" fill="#58586b"/></g><g><path d="m452.534 149.237c.097.144-.073.316-.224.229-7.554-4.318-17.331-3.249-23.778 3.189-2.658 2.668-4.398 5.893-5.23 9.297-.018.072-.081.123-.156.123h-6.617c-.075 0-.138-.05-.156-.123-.823-3.405-2.573-6.629-5.231-9.297-6.437-6.437-16.222-7.507-23.768-3.189-.151.086-.321-.085-.224-.229.71-1.061 1.532-2.063 2.462-3.001 7.72-7.72 20.24-7.72 27.96 0 .796.796 1.512 1.643 2.142 2.528.064.09.192.09.257-.001.628-.884 1.337-1.732 2.142-2.527 7.71-7.72 20.23-7.72 27.95 0 .937.937 1.761 1.94 2.471 3.001z" fill="#605f74"/><path d="m452.534 149.237c.097.144-.073.316-.224.229-7.554-4.318-17.331-3.249-23.778 3.189-2.658 2.668-4.398 5.893-5.23 9.297-.018.072-.081.123-.156.123h-3.139c-.091 0-.164-.074-.164-.164v-12.912c0-.035.01-.069.03-.097.652-.934 1.393-1.829 2.24-2.666 7.71-7.72 20.23-7.72 27.95 0 .937.937 1.761 1.94 2.471 3.001z" fill="#58586b"/></g><g><path d="m324.377 203.607c.097.144-.073.316-.224.229-7.554-4.318-17.331-3.249-23.778 3.189-2.658 2.668-4.398 5.893-5.23 9.297-.018.072-.081.123-.156.123h-6.617c-.075 0-.139-.051-.156-.123-.823-3.405-2.573-6.629-5.231-9.297-6.437-6.437-16.223-7.507-23.768-3.189-.151.086-.321-.085-.224-.229.709-1.061 1.532-2.063 2.462-3.002 7.72-7.72 20.24-7.72 27.96 0 .795.796 1.512 1.644 2.142 2.528.064.09.192.09.257-.001.628-.884 1.337-1.732 2.142-2.527 7.71-7.72 20.23-7.72 27.95 0 .937.938 1.761 1.941 2.471 3.002z" fill="#605f74"/><path d="m324.377 203.607c.097.144-.073.316-.224.229-7.554-4.318-17.331-3.249-23.778 3.189-2.658 2.668-4.398 5.893-5.23 9.297-.018.072-.081.123-.156.123h-3.139c-.091 0-.164-.074-.164-.165v-12.912c0-.035.01-.069.03-.097.653-.934 1.393-1.829 2.24-2.666 7.71-7.72 20.23-7.72 27.95 0 .937.938 1.761 1.941 2.471 3.002z" fill="#58586b"/></g></g></g></svg>