<?xml version="1.0" standalone="no"?>
<!DOCTYPE svg PUBLIC "-//W3C//DTD SVG 20010904//EN"
 "http://www.w3.org/TR/2001/REC-SVG-20010904/DTD/svg10.dtd">
<svg version="1.0" xmlns="http://www.w3.org/2000/svg"
 width="1200.000000pt" height="1200.000000pt" viewBox="0 0 1200.000000 1200.000000"
 preserveAspectRatio="xMidYMid meet">
<metadata>
Created by potrace 1.16, written by Peter Selinger 2001-2019
</metadata>
<g transform="translate(0.000000,1200.000000) scale(0.100000,-0.100000)"
fill="#ffffff" stroke="none">
<path d="M4206 10243 c30 -296 226 -533 509 -615 l80 -23 730 0 730 0 80 23
c212 61 387 218 468 422 27 69 47 161 47 217 l0 33 -1325 0 -1325 0 6 -57z"/>
<path d="M7254 9988 l-279 -313 -2 -600 c-1 -330 -5 -658 -7 -730 -20 -534
-341 -1058 -822 -1341 -169 -99 -316 -156 -519 -201 l-120 -27 -1185 -6 -1185
-6 -79 -22 c-170 -49 -292 -118 -408 -229 -199 -193 -304 -487 -268 -753 28
-213 82 -318 286 -563 564 -676 1312 -1090 2189 -1212 157 -22 553 -31 711
-16 615 58 1173 257 1653 590 939 651 1490 1736 1458 2871 -3 113 -13 261 -22
330 -80 638 -325 1219 -722 1712 l-102 127 722 3 722 3 80 25 c119 38 209 92
295 179 119 120 190 267 206 425 l7 66 -1165 0 -1166 0 -278 -312z m-3257
-3889 c49 -24 92 -86 100 -147 4 -28 -2 -50 -24 -91 -59 -114 -200 -136 -285
-45 -34 37 -48 74 -48 130 0 131 136 212 257 153z"/>
<path d="M3857 8356 c-50 -18 -76 -42 -98 -91 -40 -86 -20 -145 83 -251 l72
-75 69 68 c88 88 111 130 105 199 -10 115 -124 189 -231 150z"/>
<path d="M7615 4363 c-149 -163 -292 -321 -319 -350 l-49 -54 424 3 424 4 80
27 c245 85 418 279 471 527 7 36 14 82 14 103 l0 37 -388 0 -387 0 -270 -297z"/>
<path d="M5702 2658 c-9 -9 -12 -70 -12 -211 l0 -199 -46 41 c-127 112 -314
108 -435 -10 -156 -152 -156 -436 0 -588 126 -123 318 -122 440 1 l41 42 0
-45 c0 -71 47 -102 90 -59 19 19 20 33 20 511 0 319 -4 497 -10 510 -12 22
-68 27 -88 7z m-190 -402 c68 -20 113 -60 148 -129 26 -52 30 -71 30 -142 0
-71 -4 -90 -31 -144 -75 -149 -242 -186 -363 -79 -68 59 -90 115 -90 223 0
109 22 164 91 224 64 57 133 72 215 47z"/>
<path d="M7584 2616 c-184 -42 -332 -183 -379 -361 -8 -33 -15 -98 -15 -145 0
-155 42 -262 145 -366 152 -153 394 -189 602 -88 57 27 73 56 54 92 -16 31
-45 35 -88 14 -196 -100 -431 -48 -531 118 -50 84 -65 147 -60 254 7 125 34
194 107 266 65 65 124 96 212 112 76 13 166 -1 244 -38 63 -29 101 -31 115 -5
19 36 11 59 -27 86 -87 59 -263 87 -379 61z"/>
<path d="M3053 2605 l-23 -16 0 -474 0 -474 22 -15 c28 -20 48 -20 73 -2 17
12 18 30 19 202 l1 189 190 0 c185 0 191 -1 224 -24 41 -29 61 -75 61 -138 1
-104 35 -192 86 -224 63 -38 126 4 87 58 -46 65 -51 78 -58 156 -8 100 -29
151 -83 199 l-40 36 39 28 c52 36 95 104 109 170 27 131 -34 255 -156 315 -47
23 -60 24 -289 27 -209 3 -243 1 -262 -13z m494 -114 c133 -61 128 -282 -8
-351 -35 -19 -56 -20 -217 -18 l-177 3 -1 185 c0 102 1 188 3 193 2 4 84 7
181 7 152 0 183 -3 219 -19z"/>
<path d="M4328 2347 c-69 -29 -104 -57 -152 -121 -102 -137 -97 -377 12 -502
102 -119 303 -160 445 -91 113 56 162 132 102 159 -22 10 -32 6 -85 -31 -169
-119 -371 -54 -426 136 -8 29 -13 57 -9 63 4 6 106 10 280 10 271 0 274 0 286
22 17 31 3 123 -27 185 -56 116 -161 184 -294 190 -62 3 -85 0 -132 -20z m232
-111 c52 -26 98 -85 107 -139 l6 -37 -227 0 c-249 0 -240 -3 -213 63 54 128
198 178 327 113z"/>
<path d="M8543 2352 c-134 -48 -219 -152 -245 -301 -29 -172 52 -340 200 -413
62 -31 74 -33 167 -33 88 0 107 3 157 27 149 69 228 228 206 415 -13 121 -95
235 -207 290 -73 36 -200 43 -278 15z m198 -98 c107 -32 179 -139 179 -269 0
-78 -22 -142 -67 -194 -53 -62 -104 -85 -188 -85 -80 0 -129 20 -182 76 -124
129 -91 375 62 455 69 36 116 40 196 17z"/>
<path d="M6232 2338 c-19 -19 -17 -479 3 -545 22 -75 65 -126 132 -159 51 -26
69 -29 153 -29 114 0 158 14 218 69 82 75 87 94 90 387 4 282 2 289 -57 289
-49 0 -51 -7 -51 -248 0 -254 -7 -299 -56 -347 -68 -68 -213 -68 -280 0 -48
47 -54 86 -54 333 0 135 -4 231 -10 243 -12 22 -68 27 -88 7z"/>
</g>
</svg>
