<?xml version="1.0" encoding="iso-8859-1"?>
<!-- Generator: Adobe Illustrator 19.0.0, SVG Export Plug-In . SVG Version: 6.00 Build 0)  -->
<svg version="1.1" id="Capa_1" xmlns="http://www.w3.org/2000/svg" xmlns:xlink="http://www.w3.org/1999/xlink" x="0px" y="0px"
	 viewBox="0 0 512.533 512.533" style="enable-background:new 0 0 512.533 512.533;" xml:space="preserve">
<g>
	<polygon style="fill:#FF7058;" points="485.6,428.267 392.8,434.667 339.467,512.533 227.467,319.467 374.667,234.133 	"/>
	<polygon style="fill:#FF7058;" points="374.667,235.2 485.6,428.267 428,432.533 392.8,434.667 372.533,463.467 339.467,512.533 
		227.467,319.467 	"/>
</g>
<polygon style="fill:#F1543F;" points="328.8,260.8 428,432.533 392.8,434.667 372.533,463.467 273.333,292.8 "/>
<g>
	<polygon style="fill:#FF7058;" points="26.933,428.267 119.733,434.667 173.067,512.533 285.067,319.467 137.867,234.133 	"/>
	<polygon style="fill:#FF7058;" points="137.867,235.2 26.933,428.267 84.533,432.533 119.733,434.667 140,463.467 173.067,512.533 
		285.067,319.467 	"/>
</g>
<polygon style="fill:#F1543F;" points="183.733,260.8 84.533,432.533 119.733,434.667 140,463.467 239.2,292.8 "/>
<path style="fill:#FFD15C;" d="M449.333,264L449.333,264c27.733-27.733,27.733-72.533,0-100.267l0,0
	C435.467,149.867,428,132.8,428,113.6l0,0c0-39.467-32-71.467-71.467-71.467l0,0c-19.2,0-37.333-7.467-50.133-21.333l0,0
	c-27.733-27.733-72.533-27.733-100.267,0l0,0C192.267,34.667,175.2,42.133,156,42.133l0,0c-39.467,0-71.467,32-71.467,71.467l0,0
	c0,19.2-7.467,37.333-21.333,50.133l0,0c-27.733,27.733-27.733,72.533,0,100.267l0,0c13.867,13.867,21.333,30.933,21.333,50.133l0,0
	c0,39.467,32,71.467,71.467,71.467l0,0c19.2,0,37.333,7.467,50.133,21.333l0,0c27.733,27.733,72.533,27.733,100.267,0l0,0
	c13.867-13.867,30.933-21.333,50.133-21.333l0,0C396,385.6,428,353.6,428,314.133l0,0C428,296,435.467,277.867,449.333,264z"/>
<path style="fill:#F8B64C;" d="M256.267,384.533c-7.467,0-14.933-3.2-20.267-8.533c-21.333-21.333-50.133-33.067-80-33.067
	c-16,0-28.8-12.8-28.8-28.8c0-29.867-11.733-58.667-33.067-80c-10.667-10.667-10.667-28.8,0-40.533
	c21.333-21.333,33.067-50.133,33.067-80c0-16,12.8-28.8,28.8-28.8c30.933,0,58.667-11.733,80-33.067
	c5.333-5.333,12.8-8.533,20.267-8.533c7.467,0,14.933,3.2,20.267,8.533c21.333,21.333,50.133,33.067,80,33.067
	c16,0,28.8,12.8,28.8,28.8c0,30.933,11.733,58.667,33.067,80c10.667,10.667,10.667,28.8,0,40.533
	c-21.333,21.333-33.067,50.133-33.067,80c0,16-12.8,28.8-28.8,28.8c-30.933,0-58.667,11.733-80,33.067
	C271.2,381.333,263.733,384.533,256.267,384.533z"/>
<path style="fill:#F7AC41;" d="M94.133,204.267c21.333-21.333,33.067-50.133,33.067-80c0-16,12.8-28.8,28.8-28.8
	c30.933,0,58.667-11.733,80-33.067c5.333-5.333,12.8-8.533,20.267-8.533c7.467,0,14.933,3.2,20.267,8.533
	c21.333,21.333,50.133,33.067,80,33.067c16,0,28.8,12.8,28.8,28.8c0,30.933,11.733,58.667,33.067,80
	c4.267,4.267,6.4,9.6,7.467,14.933c2.133-8.533-1.067-18.133-7.467-25.6c-21.333-21.333-33.067-50.133-33.067-80
	c0-16-12.8-28.8-28.8-28.8c-29.867,0-58.667-11.733-80-33.067c-5.333-5.333-12.8-8.533-20.267-8.533S241.333,46.4,236,51.733
	C214.667,73.067,185.867,84.8,156,84.8c-16,0-28.8,12.8-28.8,28.8c0,29.867-11.733,58.667-33.067,80c-6.4,6.4-9.6,16-7.467,25.6
	C86.667,213.867,89.867,208.533,94.133,204.267z"/>
<path style="fill:#FFD15C;" d="M260.533,94.4l24.533,74.667c1.067,2.133,2.133,3.2,4.267,3.2h78.933c4.267,0,6.4,6.4,3.2,8.533
	l-64,45.867c-2.133,1.067-2.133,3.2-2.133,5.333l24.533,74.667c1.067,4.267-3.2,8.533-7.467,5.333l-64-45.867
	c-2.133-1.067-4.267-1.067-5.333,0l-64,45.867c-4.267,3.2-8.533-1.067-7.467-5.333L206.133,232c1.067-2.133,0-4.267-2.133-5.333
	L140,180.8c-4.267-3.2-2.133-8.533,3.2-8.533h78.933c2.133,0,4.267-1.067,4.267-3.2L250.933,94.4
	C253.067,90.133,259.467,90.133,260.533,94.4z"/>
<g>
</g>
<g>
</g>
<g>
</g>
<g>
</g>
<g>
</g>
<g>
</g>
<g>
</g>
<g>
</g>
<g>
</g>
<g>
</g>
<g>
</g>
<g>
</g>
<g>
</g>
<g>
</g>
<g>
</g>
</svg>
