<svg id="Capa_1" enable-background="new 0 0 502 502" height="512" viewBox="0 0 502 502" width="512" xmlns="http://www.w3.org/2000/svg" xmlns:xlink="http://www.w3.org/1999/xlink"><linearGradient id="lg1"><stop offset="0" stop-color="#996c66"/><stop offset="1" stop-color="#ba8a6c"/></linearGradient><linearGradient id="SVGID_1_" gradientUnits="userSpaceOnUse" x1="124.131" x2="-17.697" xlink:href="#lg1" y1="319.15" y2="319.15"/><linearGradient id="SVGID_2_" gradientTransform="matrix(-1 0 0 1 102 0)" gradientUnits="userSpaceOnUse" x1="-275.869" x2="-417.697" xlink:href="#lg1" y1="319.15" y2="319.15"/><linearGradient id="SVGID_3_" gradientUnits="userSpaceOnUse" x1="249.665" x2="251.792" y1="482.858" y2="59.539"><stop offset="0" stop-color="#ad7d63"/><stop offset="1" stop-color="#cb9d82"/></linearGradient><linearGradient id="SVGID_4_" gradientUnits="userSpaceOnUse" x1="101.256" x2="449.514" y1="210.735" y2="210.735"><stop offset="0" stop-color="#efc27b"/><stop offset="1" stop-color="#f3d5a6"/></linearGradient><linearGradient id="SVGID_5_" gradientUnits="userSpaceOnUse" x1="251" x2="251" xlink:href="#lg1" y1="180.077" y2="8.605"/><linearGradient id="lg2"><stop offset="0" stop-color="#ea7d32"/><stop offset="1" stop-color="#f0b160"/></linearGradient><linearGradient id="SVGID_6_" gradientUnits="userSpaceOnUse" x1="191.232" x2="191.232" xlink:href="#lg2" y1="484.87" y2="421.8"/><linearGradient id="SVGID_7_" gradientUnits="userSpaceOnUse" x1="310.768" x2="310.768" xlink:href="#lg2" y1="484.87" y2="421.8"/><linearGradient id="SVGID_8_" gradientUnits="userSpaceOnUse" x1="251" x2="251" xlink:href="#lg2" y1="305.292" y2="222.399"/><g><path d="m100.731 208.243c-97.464 0-100.731 110.531-100.731 165.628 0 31.722 32.827 51.065 59.863 38.925 3.505-1.574 7.618-.755 10.1 2.178 7.809 9.225 19.472 15.083 32.505 15.083 23.513 0 42.574-19.061 42.574-42.574-.001-36.377 53.153-179.24-44.311-179.24z" fill="url(#SVGID_1_)"/><path d="m42.187 333.257c-9.139 4.414-12.96 15.355-8.66 24.548 6.076 12.992 12.994 25.242 20.702 36.522 5.454 7.982 11.276 15.495 17.444 22.541 7.752 8.124 18.679 13.19 30.795 13.19 10.399 0 19.924-3.733 27.318-9.927-28.32-20.491-48.737-48.037-62.866-78.113-4.367-9.296-15.486-13.228-24.733-8.761z" fill="#8c5f59"/><path d="m401.269 208.243c97.464 0 100.731 110.531 100.731 165.628 0 31.722-32.827 51.065-59.863 38.925-3.505-1.574-7.617-.755-10.099 2.178-7.809 9.225-19.472 15.083-32.505 15.083-23.513 0-42.574-19.061-42.574-42.574 0-36.377-53.154-179.24 44.31-179.24z" fill="url(#SVGID_2_)"/><path d="m461.86 217.024c0-98.319-94.405-178.022-210.86-178.022s-210.86 79.703-210.86 178.022 48.748 239.115 210.86 239.115 210.86-140.797 210.86-239.115z" fill="url(#SVGID_3_)"/><path d="m336.801 155.391c-31.156 2.344-59.944 2.058-76.892 13.441-5.454 3.663-12.52 3.514-17.994-.119-34.6-22.96-117.919 2.047-170.568-44.919-7.053 9.667-13.039 19.946-17.827 30.721 6.66 5.353 13.836 10.087 21.528 14.189 34.473 18.384 72.665 20.747 103.354 22.646 15.969.988 37.839 2.341 44.159 6.526 8.461 5.602 18.295 8.563 28.439 8.563s19.978-2.961 28.441-8.565c6.318-4.184 28.189-5.537 44.157-6.524 5.095-.315 10.397-.644 15.854-1.057 10.735-.812 18.206-11.032 15.714-21.506-1.991-8.375-9.781-14.042-18.365-13.396z" fill="#a37460"/><path d="m320.928 116.368c-27.953.449-52.934 13.068-69.928 32.769-16.995-19.701-41.976-32.32-69.929-32.769-51.545-.828-94.69 40.567-95.897 92.104-1.244 53.159 41.476 96.643 94.353 96.643 19.422 0 37.464-5.875 52.464-15.937 11.478-7.7 26.54-7.7 38.018 0 15 10.063 33.042 15.937 52.464 15.937 52.877 0 95.598-43.484 94.353-96.644-1.207-51.537-44.353-92.931-95.898-92.103z" fill="url(#SVGID_4_)"/><path d="m241.914 168.713c-26.747-17.749-82.605-6.842-130.905-22.669-8.23 8.697-14.84 18.948-19.317 30.259 29.759 11.52 60.89 13.449 86.71 15.046 15.969.988 37.839 2.341 44.159 6.526 8.461 5.602 18.295 8.563 28.439 8.563s19.978-2.961 28.441-8.565c6.318-4.184 28.189-5.537 44.157-6.524 5.095-.315 10.397-.644 15.854-1.057 10.735-.812 18.206-11.032 15.714-21.506-1.992-8.375-9.782-14.042-18.366-13.396-31.156 2.344-59.944 2.058-76.893 13.441-5.452 3.663-12.519 3.514-17.993-.118z" fill="#eaa950"/><path d="m261.628 81.442c49.005-40.404 118.784-25.912 185.046-57.922 12.909-6.236 27.34 4.847 24.669 18.932-28.776 151.772-164.442 95.259-211.226 126.239-5.53 3.662-12.704 3.662-18.234 0-46.783-30.98-182.45 25.532-211.225-126.239-2.671-14.085 11.76-25.168 24.669-18.932 66.261 32.01 136.041 17.518 185.046 57.922 6.19 5.104 15.064 5.104 21.255 0z" fill="url(#SVGID_5_)"/><path d="m217.727 480.258c11.826 0 20.154-11.932 15.735-22.901-7.427-18.437-23.544-31.21-42.229-31.21-18.686 0-34.803 12.773-42.23 31.21-4.419 10.97 3.909 22.901 15.735 22.901z" fill="url(#SVGID_6_)"/><path d="m284.273 480.258c-11.826 0-20.154-11.932-15.735-22.901 7.427-18.437 23.544-31.21 42.23-31.21s34.803 12.773 42.229 31.21c4.419 10.97-3.909 22.901-15.735 22.901z" fill="url(#SVGID_7_)"/><g><ellipse cx="163.114" cy="248.428" fill="#ff8392" rx="14.936" ry="12.003"/><ellipse cx="338.886" cy="248.428" fill="#ff8392" rx="14.936" ry="12.003"/><circle cx="188.721" cy="218.81" fill="#fff" r="29.618"/><circle cx="313.279" cy="218.81" fill="#fff" r="29.618"/><g fill="#3b3b44"><path d="m198.505 229.241c-2.647 0-5.214-1.404-6.579-3.888-.94-1.71-2.555-1.895-3.205-1.895-.649 0-2.264.185-3.203 1.894-1.995 3.63-6.556 4.955-10.186 2.959-3.63-1.995-4.954-6.555-2.959-10.185 3.278-5.963 9.542-9.669 16.348-9.669s13.07 3.704 16.35 9.668c1.995 3.629.671 8.19-2.959 10.186-1.146.63-2.385.93-3.607.93z"/><path d="m303.495 229.241c-1.222 0-2.46-.299-3.606-.929-3.63-1.996-4.954-6.556-2.959-10.186 3.279-5.963 9.544-9.668 16.349-9.668h.001c6.806 0 13.069 3.705 16.348 9.669 1.995 3.63.671 8.19-2.959 10.185s-8.19.671-10.186-2.959c-.939-1.71-2.554-1.894-3.203-1.894h-.001c-.65 0-2.264.185-3.204 1.895-1.366 2.482-3.932 3.887-6.58 3.887z"/></g></g><path d="m284.16 254.361c0-18.313-14.846-33.159-33.16-33.159s-33.16 14.846-33.16 33.159 14.846 43.922 33.16 43.922 33.16-25.608 33.16-43.922z" fill="url(#SVGID_8_)"/></g></svg>