<?xml version="1.0" encoding="iso-8859-1"?>
<!-- Generator: Adobe Illustrator 19.0.0, SVG Export Plug-In . SVG Version: 6.00 Build 0)  -->
<svg version="1.1" id="Capa_1" xmlns="http://www.w3.org/2000/svg" xmlns:xlink="http://www.w3.org/1999/xlink" x="0px" y="0px"
	 viewBox="0 0 512 512" style="enable-background:new 0 0 512 512;" xml:space="preserve">
<path style="fill:#3693BD;" d="M512,256c0,141.385-114.615,256-256,256S0,397.385,0,256S114.615,0,256,0S512,114.615,512,256z"/>
<path style="fill:#6DACCB;" d="M389.913,304.53L190.826,503.617C101.82,480.253,31.747,410.18,8.383,321.174L207.47,122.087
	L389.913,304.53z"/>
<path style="fill:#AFEAF2;" d="M62.458,348.757l-5.726,33.792c-2.379,14.04-16.249,23.048-30.043,19.513
	c-8.608-2.206-15.33-8.928-17.537-17.537c-3.535-13.794,5.473-27.664,19.513-30.043L62.458,348.757z M161.846,266.905
	c13.794,3.535,27.664-5.473,30.043-19.513l5.725-33.792l-33.792,5.726c-14.04,2.379-23.048,16.249-19.513,30.043
	C146.516,257.977,153.238,264.699,161.846,266.905z M76.731,316.947c2.206,8.608,8.928,15.33,17.536,17.537l0,0
	c13.794,3.535,27.664-5.473,30.043-19.513l5.725-33.792l-33.792,5.726C82.205,289.283,73.196,303.153,76.731,316.947L76.731,316.947
	z M79.059,404.875c-14.04,2.379-23.048,16.249-19.513,30.043l0,0c2.206,8.608,8.928,15.33,17.537,17.537
	c13.794,3.535,27.664-5.473,30.043-19.513l5.726-33.792L79.059,404.875z M214.216,269.718c-14.04,2.379-23.048,16.249-19.513,30.043
	l0,0c2.206,8.608,8.928,15.33,17.537,17.537c13.794,3.535,27.664-5.473,30.043-19.513l5.725-33.792L214.216,269.718z
	 M109.938,485.311c2.206,8.608,8.928,15.33,17.537,17.537c13.794,3.535,27.664-5.473,30.043-19.513l5.726-33.792l-33.792,5.726
	C115.411,457.647,106.403,471.516,109.938,485.311z M264.608,320.111c-14.04,2.379-23.048,16.249-19.513,30.043l0,0
	c2.206,8.608,8.928,15.33,17.537,17.537c13.794,3.535,27.664-5.473,30.043-19.513l5.726-33.792L264.608,320.111z M177.517,417.732
	L177.517,417.732c2.206,8.608,8.928,15.33,17.536,17.537l0,0c13.794,3.535,27.664-5.473,30.043-19.513l5.726-33.792l-33.792,5.726
	C182.99,390.068,173.981,403.938,177.517,417.732z M146.637,337.297c-14.04,2.379-23.049,16.249-19.513,30.043
	c2.206,8.608,8.928,15.33,17.537,17.537c13.794,3.535,27.664-5.473,30.043-19.513l5.726-33.792L146.637,337.297z"/>
<path style="fill:#D5F3F7;" d="M139.302,465.119l21.931-3.716l-3.716,21.931c-2.379,14.04-16.249,23.048-30.043,19.513
	c-1.947-0.499-3.791-1.24-5.515-2.171c-0.931-1.724-1.672-3.567-2.171-5.515C116.254,481.368,125.263,467.498,139.302,465.119z
	 M187.368,427.583L187.368,427.583c0.499,1.947,1.24,3.791,2.171,5.515c1.724,0.931,3.567,1.672,5.515,2.171l0,0
	c13.794,3.535,27.664-5.473,30.043-19.513l3.716-21.931l-21.931,3.716C192.841,399.919,183.833,413.789,187.368,427.583z
	 M69.397,444.769L69.397,444.769c0.499,1.947,1.24,3.791,2.171,5.515c1.724,0.931,3.568,1.672,5.515,2.171
	c13.794,3.535,27.664-5.473,30.043-19.513l3.716-21.931l-21.931,3.716C74.87,417.105,65.862,430.975,69.397,444.769z
	 M274.46,329.962c-14.04,2.379-23.049,16.249-19.513,30.043l0,0c0.499,1.947,1.24,3.791,2.171,5.515
	c1.724,0.931,3.568,1.672,5.515,2.171c13.794,3.535,27.664-5.473,30.043-19.513l3.716-21.931L274.46,329.962z M136.975,377.191
	c0.499,1.947,1.24,3.791,2.171,5.515c1.724,0.931,3.568,1.672,5.515,2.171c13.794,3.535,27.664-5.473,30.043-19.513l3.716-21.931
	l-21.931,3.716C142.449,349.527,133.44,363.397,136.975,377.191z M204.554,309.612L204.554,309.612
	c0.499,1.947,1.24,3.791,2.171,5.515c1.724,0.931,3.568,1.672,5.515,2.171c13.794,3.535,27.664-5.473,30.043-19.513l3.716-21.931
	l-21.931,3.716C210.027,281.948,201.019,295.818,204.554,309.612z M195.605,225.461l-21.931,3.716
	c-14.04,2.379-23.049,16.249-19.513,30.043c0.499,1.947,1.24,3.791,2.171,5.515c1.724,0.931,3.568,1.672,5.515,2.171
	c13.794,3.535,27.664-5.473,30.043-19.513L195.605,225.461z M128.027,293.04l-21.931,3.716
	c-14.04,2.379-23.049,16.249-19.513,30.043l0,0c0.499,1.947,1.24,3.791,2.171,5.515c1.724,0.931,3.568,1.672,5.515,2.171l0,0
	c13.794,3.535,27.664-5.473,30.043-19.513L128.027,293.04z M19.004,394.377c0.499,1.947,1.24,3.791,2.171,5.515
	c1.724,0.931,3.568,1.672,5.515,2.171c13.794,3.535,27.664-5.473,30.043-19.513l3.716-21.931l-21.931,3.716
	C24.478,366.713,15.469,380.583,19.004,394.377z"/>
<path style="fill:#C5D3DD;" d="M425.344,64.029l-49.135,49.135l-14.142-14.142l47.707-47.707
	C415.089,55.319,420.283,59.557,425.344,64.029z"/>
<path style="fill:#D9E7EC;" d="M409.337,130.947c54.423,68.324,50.618,167.776-11.419,231.746L149.307,114.082
	c63.969-62.037,163.421-65.841,231.746-11.419l41.278-41.278c5.028,4.306,9.93,8.836,14.689,13.595
	c4.76,4.759,9.289,9.661,13.595,14.689L409.337,130.947z"/>
<path style="fill:#C5D3DD;" d="M401.099,371.59c-5.487,6.029-14.829,6.195-20.528,0.496L139.914,131.429
	c-5.538-5.538-5.538-14.517,0-20.055l0,0c4.214-4.214,10.417-5.212,15.584-3.013c61.471-54.216,151.757-58.158,217.412-11.815
	c-57.139-18.027-123.866-5.626-176.069,36.093c-4.634,3.703-4.963,10.644-0.768,14.838l204.27,204.27
	C405.742,357.147,406.239,365.942,401.099,371.59z"/>
<g>
</g>
<g>
</g>
<g>
</g>
<g>
</g>
<g>
</g>
<g>
</g>
<g>
</g>
<g>
</g>
<g>
</g>
<g>
</g>
<g>
</g>
<g>
</g>
<g>
</g>
<g>
</g>
<g>
</g>
</svg>
