<svg id="Capa_1" enable-background="new 0 0 512 512" height="512" viewBox="0 0 512 512" width="512" xmlns="http://www.w3.org/2000/svg"><g><g><g><g><g><g><g><g><g><g><g><g><g><g><g><g><g><g><g><circle cx="256" cy="256" fill="#00eecf" r="256"/></g></g></g></g></g></g></g></g></g></g></g></g></g></g></g></g></g></g><path d="m335.904 163.6-75.008-75.008-67.583-30.763-58.438 30.653.55 9.804 73.223 73.223-88.814 247.373 88.709 88.709c15.38 2.884 31.239 4.409 47.457 4.409 141.385 0 256-114.615 256-256 0-9.481-.532-18.838-1.536-28.052l-108.984-108.983z" fill="#00ddc1"/><g><g><path d="m315.32 118.965h86.161v222.412h-86.161z" fill="#f7f9fa"/><g><g><g><g><g><g><path d="m358.4 327.001h-43.08v-208.036h43.08l21.54 119.003z" fill="#f7f9fa"/></g></g></g></g><g><g><path d="m358.4 118.965h43.08v208.036h-43.08z" fill="#dbe1e8"/></g></g></g><g><path d="m391.904 365.304-33.504 67.007c-37.007 0-67.008-30-67.008-67.008s30-67.008 67.008-67.008z" fill="#f7f9fa"/><path d="m425.408 365.304c0 37.007-30 67.008-67.008 67.008v-134.016c37.007 0 67.008 30.001 67.008 67.008z" fill="#dbe1e8"/></g></g><path d="m379.94 365.304-21.54 43.08c-23.793 0-43.08-19.288-43.08-43.08 0-23.793 19.288-43.08 43.08-43.08z" fill="#ff6379"/><g><path d="m358.4 210.812-10.027 13.803-7.64-13.803v-63.318h17.667l9.803 30.506z" fill="#9de1f7"/><path d="m358.4 331.726h-17.667v-120.914h17.667l6.566 63.725z" fill="#ff6379"/><path d="m376.067 210.812-8.834 13.803-8.833-13.803v-63.318h17.667z" fill="#5ecdf3"/><path d="m358.4 210.812h17.667v120.914h-17.667z" fill="#ff415b"/></g><path d="m401.48 365.304c0 23.793-19.288 43.08-43.08 43.08v-86.161c23.793.001 43.08 19.288 43.08 43.081z" fill="#ff415b"/></g><g><g><g><g><path d="m193.313 169.971h61.412v223.294h-61.412z" fill="#dbe1e8"/></g></g><g><path d="m193.313 154.667h-62.664c-7.762 0-14.054 6.292-14.054 14.054v241.103c0 7.762 6.292 14.054 14.054 14.054h62.664l15.306-134.605z" fill="#0051be"/><path d="m255.977 154.667h-62.664v269.21h62.664c7.762 0 14.054-6.292 14.054-14.054v-241.103c-.001-7.761-6.293-14.053-14.054-14.053z" fill="#00429c"/><g><g><g><g><g><path d="m193.313 393.265h-61.413v-223.294h61.413l30.706 127.731z" fill="#f7f9fa"/></g></g></g></g><g><g><path d="m193.313 169.971h61.412v223.294h-61.412z" fill="#dbe1e8"/></g></g></g><path d="m193.313 162.841h-38.542l7.653 26.5h30.889l7.653-11.716z" fill="#0051be"/><path d="m193.313 189.341h30.888l7.654-26.5h-38.542z" fill="#00429c"/><g><g><g><g><g><g><g><path d="m193.313 181.047h-21.387v-6.98h21.387l10.693 3.736z" fill="#046eff"/></g></g></g></g></g></g><g><g><path d="m193.313 174.067h21.387v6.98h-21.387z" fill="#0051be"/></g></g></g><g><g><g><g><g><g><g><path d="m193.325 411.271h-21.387v-6.98h21.387l10.694 3.737z" fill="#046eff"/></g></g></g></g></g></g><g><g><path d="m193.325 404.291h21.387v6.98h-21.387z" fill="#0051be"/></g></g></g></g></g><g><g><path d="m193.313 275.767-8.687 6.472-6.62-6.472v-29.688h15.307l8.493 14.303z" fill="#9de1f7"/><path d="m193.313 332.46h-15.307v-56.693h15.307l5.688 29.878z" fill="#ff6379"/><path d="m208.619 275.767-7.653 6.472-7.653-6.472v-29.688h15.306z" fill="#5ecdf3"/><path d="m193.313 275.767h15.306v56.693h-15.306z" fill="#ff415b"/></g><path d="m178.006 224.388 7.358 7.358 7.949-7.949 3.653-6.444-3.653-8.271zm0 129.746 15.306 15.306 3.653-7.594-3.653-7.121-7.949-7.949z" fill="#7e8a95"/><path d="m193.313 354.725v14.715l15.306-15.306-7.358-7.358zm15.306-130.337-15.306-15.306v14.715l7.949 7.949z" fill="#4e5a61"/></g><g><path d="m193.313 56.414c-27.233 0-51.585 12.555-67.583 32.177l9.698 9.698c13.473-17.178 34.412-28.235 57.886-28.235l6.757-6.409zm-48.841 50.92 9.663 9.663c9.411-11.151 23.478-18.253 39.178-18.253l6.757-6.226-6.757-7.415c-19.461.001-36.935 8.622-48.841 22.231zm35.297 49.094c0 7.48 6.064 13.544 13.543 13.544l3.378-14.064-3.378-13.023c-7.479-.001-13.543 6.063-13.543 13.543zm-16.46-30.256 9.641 9.641c5.24-5.176 12.433-8.378 20.363-8.378l6.757-6.405-6.757-7.235c-11.691-.001-22.294 4.731-30.004 12.377z" fill="#ffe377"/><path d="m193.313 85.104v13.64c15.7 0 29.767 7.101 39.178 18.253l9.663-9.663c-11.906-13.609-29.381-22.23-48.841-22.23zm0 42.33c7.93 0 15.123 3.202 20.363 8.378l9.641-9.641c-7.71-7.646-18.313-12.378-30.003-12.378v13.641zm0-71.02v13.64c23.474 0 44.413 11.057 57.886 28.235l9.698-9.698c-15.999-19.621-40.352-32.177-67.584-32.177zm0 86.47v27.087c7.48 0 13.544-6.064 13.544-13.544 0-7.479-6.064-13.543-13.544-13.543z" fill="#ffd944"/></g></g></g></g></svg>