<?xml version="1.0" encoding="iso-8859-1"?>
<!-- Generator: Adobe Illustrator 19.0.0, SVG Export Plug-In . SVG Version: 6.00 Build 0)  -->
<svg version="1.1" id="Capa_1" xmlns="http://www.w3.org/2000/svg" xmlns:xlink="http://www.w3.org/1999/xlink" x="0px" y="0px"
	 viewBox="0 0 512 512" style="enable-background:new 0 0 512 512;" xml:space="preserve">
<g>
	<path style="fill:#FF7058;" d="M468.267,299.733L396.8,317.867l-130.133-198.4l86.4-22.4c9.6-2.133,19.2,1.067,24.533,9.6
		L481.067,265.6C490.667,277.333,483.2,295.467,468.267,299.733z"/>
	<path style="fill:#FF7058;" d="M299.733,468.267l18.133-71.467l-198.4-130.133l-22.4,86.4c-3.2,9.6,1.067,19.2,9.6,24.533
		L265.6,481.067C277.333,490.667,295.467,483.2,299.733,468.267z"/>
</g>
<g>
	<path style="fill:#F1543F;" d="M119.467,266.667l198.4,130.133L307.2,437.333c-64-24.533-141.867-61.867-203.733-113.067
		L119.467,266.667z"/>
	<path style="fill:#F1543F;" d="M324.267,104.533c51.2,60.8,88.533,139.733,113.067,203.733L396.8,318.933L266.667,119.467
		L324.267,104.533z"/>
</g>
<path style="fill:#F2F2F2;" d="M428.8,333.867C398.933,252.8,353.067,154.667,288,89.6C161.067-37.333,8.533,8.533,8.533,8.533
	S-38.4,161.067,89.6,288c65.067,65.067,164.267,110.933,244.267,140.8L428.8,333.867z"/>
<path style="fill:#40596B;" d="M147.2,8.533c-76.8-19.2-138.667,0-138.667,0s-19.2,61.867,0,138.667L147.2,8.533z"/>
<path style="fill:#CDD6E0;" d="M337.067,425.6c6.4,2.133,12.8,5.333,19.2,7.467l76.8-76.8c-2.133-6.4-4.267-12.8-7.467-19.2
	L337.067,425.6z"/>
<circle style="fill:#54C0EB;" cx="188.8" cy="188.8" r="73.6"/>
<circle style="fill:#84DBFF;" cx="188.8" cy="188.8" r="52.27"/>
<path style="fill:#65D8FC;" d="M167.467,226.133c-20.267-20.267-20.267-53.333,0-73.6c8.533-8.533,18.133-12.8,28.8-14.933
	c-16-2.133-33.067,2.133-44.8,14.933c-20.267,20.267-20.267,53.333,0,73.6c12.8,12.8,28.8,17.067,44.8,14.933
	C186.667,238.933,176,233.6,167.467,226.133z"/>
<path style="fill:#FFD15C;" d="M506.667,434.133l-64-22.4c0,0,57.6,64,69.333,100.267c-36.267-11.733-100.267-69.333-100.267-69.333
	l22.4,64c-24.533-13.867-67.2-69.333-67.2-69.333l6.4-6.4l27.733,25.6l-8.533-45.867c0,0,39.467,30.933,56.533,38.4
	c-7.467-17.067-38.4-56.533-38.4-56.533l45.867,8.533l-25.6-27.733l6.4-6.4C437.333,366.933,492.8,409.6,506.667,434.133z"/>
<g>
</g>
<g>
</g>
<g>
</g>
<g>
</g>
<g>
</g>
<g>
</g>
<g>
</g>
<g>
</g>
<g>
</g>
<g>
</g>
<g>
</g>
<g>
</g>
<g>
</g>
<g>
</g>
<g>
</g>
</svg>
